NotoSansArmenian-CondensedSemiBold.ufo
<glyph name="uni0531" format="2">
  <advance width="673"/>
  <unicode hex="0531"/>
  <note>
uni0531
</note>
  <anchor x="283" y="714" name="top"/>
  <outline>
    <contour>
      <point x="281" y="-10" type="curve" smooth="yes"/>
      <point x="423" y="-10"/>
      <point x="506" y="69"/>
      <point x="506" y="236" type="curve" smooth="yes"/>
      <point x="506" y="714" type="line"/>
      <point x="369" y="714" type="line"/>
      <point x="369" y="241" type="line" smooth="yes"/>
      <point x="369" y="143"/>
      <point x="339" y="110"/>
      <point x="283" y="110" type="curve" smooth="yes"/>
      <point x="227" y="110"/>
      <point x="197" y="146"/>
      <point x="197" y="240" type="curve" smooth="yes"/>
      <point x="197" y="714" type="line"/>
      <point x="60" y="714" type="line"/>
      <point x="60" y="233" type="line" smooth="yes"/>
      <point x="60" y="69"/>
      <point x="139" y="-10"/>
    </contour>
    <contour>
      <point x="498" y="232" type="curve"/>
      <point x="470" y="117" type="line"/>
      <point x="479" y="121"/>
      <point x="492" y="122"/>
      <point x="505" y="122" type="curve" smooth="yes"/>
      <point x="532" y="122"/>
      <point x="545" y="104"/>
      <point x="545" y="59" type="curve" smooth="yes"/>
      <point x="545" y="-1" type="line"/>
      <point x="664" y="-1" type="line"/>
      <point x="664" y="68" type="line" smooth="yes"/>
      <point x="664" y="183"/>
      <point x="619" y="236"/>
      <point x="529" y="236" type="curve" smooth="yes"/>
      <point x="518" y="236"/>
      <point x="506" y="234"/>
    </contour>
  </outline>
</glyph>
<glyph name="uni0533" format="2">
  <advance width="619"/>
  <unicode hex="0533"/>
  <note>
uni0533
</note>
  <outline>
    <contour>
      <point x="485" y="0" type="line"/>
      <point x="485" y="478" type="line" smooth="yes"/>
      <point x="485" y="645"/>
      <point x="402" y="724"/>
      <point x="260" y="724" type="curve" smooth="yes"/>
      <point x="126" y="724"/>
      <point x="40" y="642"/>
      <point x="40" y="474" type="curve" smooth="yes"/>
      <point x="40" y="324"/>
      <point x="110" y="235"/>
      <point x="258" y="235" type="curve" smooth="yes"/>
      <point x="604" y="235" type="line"/>
      <point x="604" y="355" type="line"/>
      <point x="274" y="355" type="line" smooth="yes"/>
      <point x="199" y="355"/>
      <point x="177" y="399"/>
      <point x="177" y="474" type="curve" smooth="yes"/>
      <point x="177" y="565"/>
      <point x="204" y="604"/>
      <point x="262" y="604" type="curve" smooth="yes"/>
      <point x="318" y="604"/>
      <point x="348" y="571"/>
      <point x="348" y="473" type="curve" smooth="yes"/>
      <point x="348" y="0" type="line"/>
    </contour>
  </outline>
</glyph>
<glyph name="uni0535" format="2">
  <advance width="556"/>
  <unicode hex="0535"/>
  <note>
uni0535
</note>
  <outline>
    <contour>
      <point x="60" y="714" type="line"/>
      <point x="60" y="236" type="line" smooth="yes"/>
      <point x="60" y="69"/>
      <point x="143" y="-10"/>
      <point x="285" y="-10" type="curve" smooth="yes"/>
      <point x="444" y="-10"/>
      <point x="506" y="67"/>
      <point x="506" y="269" type="curve"/>
      <point x="369" y="269" type="line"/>
      <point x="369" y="151"/>
      <point x="347" y="110"/>
      <point x="283" y="110" type="curve" smooth="yes"/>
      <point x="227" y="110"/>
      <point x="197" y="143"/>
      <point x="197" y="241" type="curve" smooth="yes"/>
      <point x="197" y="714" type="line"/>
    </contour>
    <contour>
      <point x="183" y="454" type="line"/>
      <point x="506" y="454" type="line"/>
      <point x="506" y="574" type="line"/>
      <point x="183" y="574" type="line"/>
    </contour>
  </outline>
</glyph>
<glyph name="uni0536" format="2">
  <advance width="563"/>
  <unicode hex="0536"/>
  <note>
uni0536
</note>
  <outline>
    <contour>
      <point x="247" y="288" type="curve" smooth="yes"/>
      <point x="374" y="288"/>
      <point x="481" y="391"/>
      <point x="481" y="490" type="curve" smooth="yes"/>
      <point x="481" y="640"/>
      <point x="398" y="725"/>
      <point x="265" y="725" type="curve" smooth="yes"/>
      <point x="139" y="725"/>
      <point x="50" y="639"/>
      <point x="50" y="509" type="curve" smooth="yes"/>
      <point x="50" y="384"/>
      <point x="135" y="288"/>
    </contour>
    <contour>
      <point x="403" y="0" type="line"/>
      <point x="529" y="0" type="line"/>
      <point x="529" y="67" type="line" smooth="yes"/>
      <point x="529" y="157"/>
      <point x="487" y="193"/>
      <point x="404" y="193" type="curve" smooth="yes"/>
      <point x="181" y="193" type="line"/>
      <point x="181" y="249" type="line"/>
      <point x="55" y="249" type="line"/>
      <point x="55" y="0" type="line"/>
      <point x="181" y="0" type="line"/>
      <point x="181" y="73" type="line"/>
      <point x="352" y="73" type="line" smooth="yes"/>
      <point x="395" y="73"/>
      <point x="403" y="56"/>
      <point x="403" y="25" type="curve" smooth="yes"/>
    </contour>
    <contour>
      <point x="181" y="100" type="line"/>
      <point x="343" y="100"/>
      <point x="481" y="251"/>
      <point x="481" y="490" type="curve"/>
      <point x="352" y="490" type="line"/>
      <point x="352" y="307"/>
      <point x="284" y="193"/>
      <point x="181" y="193" type="curve"/>
    </contour>
    <contour>
      <point x="266" y="409" type="curve" smooth="yes"/>
      <point x="211" y="409"/>
      <point x="186" y="447"/>
      <point x="186" y="505" type="curve" smooth="yes"/>
      <point x="186" y="567"/>
      <point x="211" y="604"/>
      <point x="265" y="604" type="curve" smooth="yes"/>
      <point x="321" y="604"/>
      <point x="343" y="564"/>
      <point x="343" y="505" type="curve" smooth="yes"/>
      <point x="343" y="447"/>
      <point x="320" y="409"/>
    </contour>
  </outline>
</glyph>
<glyph name="uni0537" format="2">
  <advance width="497"/>
  <unicode hex="0537"/>
  <note>
uni0537
</note>
  <outline>
    <contour>
      <point x="138" y="508" type="line"/>
      <point x="138" y="388" type="line"/>
      <point x="440" y="388" type="line"/>
      <point x="440" y="508" type="line"/>
    </contour>
    <contour>
      <point x="237" y="0" type="line" smooth="yes"/>
      <point x="295" y="0"/>
      <point x="306" y="-23"/>
      <point x="306" y="-70" type="curve" smooth="yes"/>
      <point x="306" y="-147" type="line"/>
      <point x="443" y="-147" type="line"/>
      <point x="443" y="-40" type="line" smooth="yes"/>
      <point x="443" y="75"/>
      <point x="390" y="120"/>
      <point x="288" y="120" type="curve" smooth="yes"/>
      <point x="198" y="120" type="line"/>
      <point x="198" y="715" type="line"/>
      <point x="61" y="715" type="line"/>
      <point x="61" y="0" type="line"/>
    </contour>
  </outline>
</glyph>
<glyph name="uni0538" format="2">
  <advance width="556"/>
  <unicode hex="0538"/>
  <note>
uni0538
</note>
  <outline>
    <contour>
      <point x="60" y="0" type="line"/>
      <point x="197" y="0" type="line"/>
      <point x="197" y="473" type="line" smooth="yes"/>
      <point x="197" y="571"/>
      <point x="227" y="604"/>
      <point x="283" y="604" type="curve" smooth="yes"/>
      <point x="347" y="604"/>
      <point x="369" y="563"/>
      <point x="369" y="445" type="curve"/>
      <point x="506" y="445" type="line"/>
      <point x="506" y="647"/>
      <point x="444" y="724"/>
      <point x="285" y="724" type="curve" smooth="yes"/>
      <point x="143" y="724"/>
      <point x="60" y="645"/>
      <point x="60" y="478" type="curve" smooth="yes"/>
    </contour>
    <contour>
      <point x="183" y="120" type="line"/>
      <point x="183" y="0" type="line"/>
      <point x="506" y="0" type="line"/>
      <point x="506" y="120" type="line"/>
    </contour>
  </outline>
</glyph>
<glyph name="uni0539" format="2">
  <advance width="762"/>
  <unicode hex="0539"/>
  <note>
uni0539
</note>
  <outline>
    <contour>
      <point x="60" y="0" type="line"/>
      <point x="197" y="0" type="line"/>
      <point x="197" y="463" type="line" smooth="yes"/>
      <point x="197" y="561"/>
      <point x="247" y="604"/>
      <point x="349" y="604" type="curve" smooth="yes"/>
      <point x="467" y="604"/>
      <point x="501" y="557"/>
      <point x="501" y="435" type="curve"/>
      <point x="637" y="435" type="line"/>
      <point x="637" y="634"/>
      <point x="549" y="724"/>
      <point x="351" y="724" type="curve" smooth="yes"/>
      <point x="166" y="724"/>
      <point x="60" y="635"/>
      <point x="60" y="468" type="curve" smooth="yes"/>
    </contour>
    <contour>
      <point x="747" y="502" type="line"/>
      <point x="448" y="502" type="line" smooth="yes"/>
      <point x="329" y="502"/>
      <point x="263" y="435"/>
      <point x="263" y="317" type="curve" smooth="yes"/>
      <point x="263" y="202"/>
      <point x="338" y="133"/>
      <point x="448" y="133" type="curve" smooth="yes"/>
      <point x="559" y="133"/>
      <point x="634" y="202"/>
      <point x="637" y="382" type="curve"/>
      <point x="747" y="382" type="line"/>
    </contour>
    <contour>
      <point x="500" y="382" type="line"/>
      <point x="500" y="280"/>
      <point x="481" y="253"/>
      <point x="446" y="253" type="curve" smooth="yes"/>
      <point x="414" y="253"/>
      <point x="400" y="273"/>
      <point x="400" y="311" type="curve" smooth="yes"/>
      <point x="400" y="361"/>
      <point x="420" y="382"/>
      <point x="459" y="382" type="curve" smooth="yes"/>
    </contour>
  </outline>
</glyph>
<glyph name="uni053A" format="2">
  <advance width="619"/>
  <unicode hex="053A"/>
  <note>
uni053A
</note>
  <outline>
    <contour>
      <point x="485" y="714" type="line"/>
      <point x="348" y="714" type="line"/>
      <point x="348" y="241" type="line" smooth="yes"/>
      <point x="348" y="143"/>
      <point x="318" y="110"/>
      <point x="262" y="110" type="curve" smooth="yes"/>
      <point x="204" y="110"/>
      <point x="177" y="153"/>
      <point x="177" y="249" type="curve"/>
      <point x="40" y="249" type="line"/>
      <point x="40" y="76"/>
      <point x="126" y="-10"/>
      <point x="260" y="-10" type="curve" smooth="yes"/>
      <point x="402" y="-10"/>
      <point x="485" y="69"/>
      <point x="485" y="236" type="curve" smooth="yes"/>
    </contour>
    <contour>
      <point x="260" y="500" type="line" smooth="yes"/>
      <point x="122" y="500"/>
      <point x="40" y="408"/>
      <point x="40" y="249" type="curve"/>
      <point x="177" y="249" type="line"/>
      <point x="177" y="333"/>
      <point x="211" y="380"/>
      <point x="277" y="380" type="curve" smooth="yes"/>
      <point x="604" y="380" type="line"/>
      <point x="604" y="500" type="line"/>
    </contour>
  </outline>
</glyph>
<glyph name="uni053B" format="2">
  <advance width="545"/>
  <unicode hex="053B"/>
  <note>
uni053B
</note>
  <outline>
    <contour>
      <point x="61" y="714" type="line"/>
      <point x="61" y="0" type="line"/>
      <point x="198" y="0" type="line"/>
      <point x="198" y="425" type="line"/>
      <point x="193" y="425" type="line"/>
      <point x="196" y="451"/>
      <point x="198" y="485"/>
      <point x="198" y="527" type="curve" smooth="yes"/>
      <point x="198" y="714" type="line"/>
    </contour>
    <contour>
      <point x="185" y="195" type="line"/>
      <point x="198" y="195" type="line"/>
      <point x="198" y="251" type="line" smooth="yes"/>
      <point x="198" y="334"/>
      <point x="234" y="383"/>
      <point x="290" y="383" type="curve" smooth="yes"/>
      <point x="353" y="383"/>
      <point x="368" y="347"/>
      <point x="368" y="276" type="curve" smooth="yes"/>
      <point x="368" y="199" type="line"/>
      <point x="505" y="199" type="line"/>
      <point x="505" y="319" type="line" smooth="yes"/>
      <point x="505" y="447"/>
      <point x="445" y="503"/>
      <point x="338" y="503" type="curve" smooth="yes"/>
      <point x="279" y="503"/>
      <point x="226" y="478"/>
      <point x="185" y="406" type="curve"/>
    </contour>
  </outline>
</glyph>
<glyph name="uni053C" format="2">
  <advance width="356"/>
  <unicode hex="053C"/>
  <note>
uni053C
</note>
  <outline>
    <contour>
      <point x="61" y="0" type="line"/>
      <point x="341" y="0" type="line"/>
      <point x="341" y="120" type="line"/>
      <point x="198" y="120" type="line"/>
      <point x="198" y="714" type="line"/>
      <point x="61" y="714" type="line"/>
    </contour>
  </outline>
</glyph>
<glyph name="uni053D" format="2">
  <advance width="746"/>
  <unicode hex="053D"/>
  <note>
uni053D
</note>
  <outline>
    <contour>
      <point x="61" y="-1" type="line"/>
      <point x="198" y="-1" type="line"/>
      <point x="198" y="715" type="line"/>
      <point x="61" y="715" type="line"/>
    </contour>
    <contour>
      <point x="310" y="569" type="line"/>
      <point x="310" y="369" type="line" smooth="yes"/>
      <point x="310" y="244"/>
      <point x="378" y="176"/>
      <point x="508" y="176" type="curve" smooth="yes"/>
      <point x="636" y="176"/>
      <point x="705" y="249"/>
      <point x="705" y="379" type="curve" smooth="yes"/>
      <point x="705" y="569" type="line"/>
      <point x="568" y="569" type="line"/>
      <point x="568" y="387" type="line" smooth="yes"/>
      <point x="568" y="321"/>
      <point x="549" y="296"/>
      <point x="508" y="296" type="curve" smooth="yes"/>
      <point x="467" y="296"/>
      <point x="447" y="322"/>
      <point x="447" y="387" type="curve" smooth="yes"/>
      <point x="447" y="569" type="line"/>
    </contour>
    <contour>
      <point x="115" y="569" type="line"/>
      <point x="115" y="449" type="line"/>
      <point x="397" y="449" type="line"/>
      <point x="397" y="569" type="line"/>
    </contour>
  </outline>
</glyph>
<glyph name="uni053E" format="2">
  <advance width="576"/>
  <unicode hex="053E"/>
  <note>
uni053E
</note>
  <outline>
    <contour>
      <point x="37" y="256" type="curve" smooth="yes"/>
      <point x="37" y="99"/>
      <point x="131" y="-10"/>
      <point x="288" y="-10" type="curve" smooth="yes"/>
      <point x="437" y="-10"/>
      <point x="533" y="98"/>
      <point x="533" y="255" type="curve" smooth="yes"/>
      <point x="533" y="402"/>
      <point x="463" y="502"/>
      <point x="289" y="586" type="curve" smooth="yes"/>
      <point x="188" y="635"/>
      <point x="179" y="658"/>
      <point x="179" y="714" type="curve"/>
      <point x="44" y="714" type="line"/>
      <point x="44" y="595"/>
      <point x="69" y="562"/>
      <point x="200" y="497" type="curve" smooth="yes"/>
      <point x="349" y="423"/>
      <point x="396" y="349"/>
      <point x="396" y="254" type="curve" smooth="yes"/>
      <point x="396" y="158"/>
      <point x="362" y="110"/>
      <point x="284" y="110" type="curve" smooth="yes"/>
      <point x="214" y="110"/>
      <point x="174" y="163"/>
      <point x="174" y="257" type="curve" smooth="yes"/>
      <point x="174" y="441"/>
      <point x="348" y="604"/>
      <point x="531" y="604" type="curve"/>
      <point x="531" y="724" type="line"/>
      <point x="276" y="721"/>
      <point x="37" y="495"/>
    </contour>
  </outline>
</glyph>
<glyph name="uni053F" format="2">
  <advance width="545"/>
  <unicode hex="053F"/>
  <note>
uni053F
</note>
  <outline>
    <contour>
      <point x="485" y="0" type="line"/>
      <point x="485" y="602" type="line"/>
      <point x="348" y="602" type="line"/>
      <point x="348" y="280" type="line"/>
      <point x="353" y="280" type="line"/>
      <point x="350" y="255"/>
      <point x="348" y="221"/>
      <point x="348" y="179" type="curve" smooth="yes"/>
      <point x="348" y="0" type="line"/>
    </contour>
    <contour>
      <point x="361" y="505" type="line"/>
      <point x="348" y="505" type="line"/>
      <point x="348" y="451" type="line" smooth="yes"/>
      <point x="348" y="368"/>
      <point x="311" y="318"/>
      <point x="257" y="318" type="curve" smooth="yes"/>
      <point x="192" y="318"/>
      <point x="177" y="356"/>
      <point x="177" y="425" type="curve" smooth="yes"/>
      <point x="177" y="714" type="line"/>
      <point x="40" y="714" type="line"/>
      <point x="40" y="381" type="line" smooth="yes"/>
      <point x="40" y="254"/>
      <point x="100" y="198"/>
      <point x="209" y="198" type="curve" smooth="yes"/>
      <point x="267" y="198"/>
      <point x="329" y="226"/>
      <point x="361" y="306" type="curve"/>
    </contour>
  </outline>
</glyph>
<glyph name="uni0540" format="2">
  <advance width="516"/>
  <unicode hex="0540"/>
  <note>
uni0540
</note>
  <outline>
    <contour>
      <point x="438" y="569" type="curve"/>
      <point x="510" y="668" type="line"/>
      <point x="460" y="709"/>
      <point x="408" y="724"/>
      <point x="349" y="724" type="curve" smooth="yes"/>
      <point x="231" y="724"/>
      <point x="161" y="670"/>
      <point x="120" y="489" type="curve" smooth="yes"/>
      <point x="28" y="82" type="line"/>
      <point x="162" y="55" type="line"/>
      <point x="253" y="458" type="line" smooth="yes"/>
      <point x="279" y="575"/>
      <point x="311" y="604"/>
      <point x="359" y="604" type="curve" smooth="yes"/>
      <point x="385" y="604"/>
      <point x="412" y="593"/>
    </contour>
    <contour>
      <point x="28" y="82" type="line"/>
      <point x="273" y="11" type="line" smooth="yes"/>
      <point x="314" y="-1"/>
      <point x="324" y="-28"/>
      <point x="324" y="-63" type="curve" smooth="yes"/>
      <point x="324" y="-126" type="line"/>
      <point x="460" y="-126" type="line"/>
      <point x="460" y="-52" type="line" smooth="yes"/>
      <point x="460" y="36"/>
      <point x="434" y="83"/>
      <point x="335" y="113" type="curve" smooth="yes"/>
      <point x="80" y="191" type="line"/>
    </contour>
  </outline>
</glyph>
<glyph name="uni0541" format="2">
  <advance width="546"/>
  <unicode hex="0541"/>
  <note>
uni0541
</note>
  <outline>
    <contour>
      <point x="266" y="724" type="curve" smooth="yes"/>
      <point x="139" y="724"/>
      <point x="51" y="639"/>
      <point x="51" y="509" type="curve" smooth="yes"/>
      <point x="51" y="384"/>
      <point x="127" y="318"/>
      <point x="246" y="318" type="curve" smooth="yes"/>
      <point x="284" y="318"/>
      <point x="326" y="324"/>
      <point x="354" y="338" type="curve"/>
      <point x="354" y="449" type="line"/>
      <point x="330" y="436"/>
      <point x="295" y="429"/>
      <point x="265" y="429" type="curve" smooth="yes"/>
      <point x="214" y="429"/>
      <point x="188" y="463"/>
      <point x="188" y="513" type="curve" smooth="yes"/>
      <point x="188" y="570"/>
      <point x="213" y="604"/>
      <point x="266" y="604" type="curve" smooth="yes"/>
      <point x="322" y="604"/>
      <point x="346" y="564"/>
      <point x="346" y="460" type="curve" smooth="yes"/>
      <point x="346" y="228"/>
      <point x="276" y="93"/>
      <point x="210" y="93" type="curve"/>
      <point x="210" y="-10" type="line"/>
      <point x="367" y="-10"/>
      <point x="483" y="183"/>
      <point x="483" y="432" type="curve" smooth="yes"/>
      <point x="483" y="637"/>
      <point x="399" y="724"/>
    </contour>
    <contour>
      <point x="506" y="-27" type="curve"/>
      <point x="506" y="117" type="line"/>
      <point x="372" y="238"/>
      <point x="293" y="279"/>
      <point x="200" y="279" type="curve" smooth="yes"/>
      <point x="105" y="279"/>
      <point x="45" y="221"/>
      <point x="45" y="133" type="curve" smooth="yes"/>
      <point x="45" y="39"/>
      <point x="102" y="-10"/>
      <point x="210" y="-10" type="curve"/>
      <point x="210" y="93" type="line"/>
      <point x="184" y="93"/>
      <point x="168" y="107"/>
      <point x="168" y="134" type="curve" smooth="yes"/>
      <point x="168" y="159"/>
      <point x="180" y="176"/>
      <point x="209" y="176" type="curve" smooth="yes"/>
      <point x="270" y="176"/>
      <point x="397" y="90"/>
    </contour>
  </outline>
</glyph>
<glyph name="uni0542" format="2">
  <advance width="634"/>
  <unicode hex="0542"/>
  <note>
uni0542
</note>
  <outline>
    <contour>
      <point x="486" y="0" type="line"/>
      <point x="486" y="481" type="line" smooth="yes"/>
      <point x="486" y="645"/>
      <point x="407" y="724"/>
      <point x="265" y="724" type="curve" smooth="yes"/>
      <point x="123" y="724"/>
      <point x="40" y="636"/>
      <point x="40" y="442" type="curve"/>
      <point x="177" y="442" type="line"/>
      <point x="177" y="571"/>
      <point x="207" y="604"/>
      <point x="263" y="604" type="curve" smooth="yes"/>
      <point x="319" y="604"/>
      <point x="349" y="568"/>
      <point x="349" y="474" type="curve" smooth="yes"/>
      <point x="349" y="0" type="line"/>
    </contour>
    <contour>
      <point x="477" y="120" type="line"/>
      <point x="477" y="0" type="line"/>
      <point x="619" y="0" type="line"/>
      <point x="619" y="120" type="line"/>
    </contour>
  </outline>
</glyph>
<glyph name="uni0543" format="2">
  <advance width="595"/>
  <unicode hex="0543"/>
  <note>
uni0543
</note>
  <outline>
    <contour>
      <point x="537" y="604" type="curve"/>
      <point x="537" y="724" type="line"/>
      <point x="282" y="714"/>
      <point x="43" y="485"/>
      <point x="43" y="214" type="curve" smooth="yes"/>
      <point x="43" y="63"/>
      <point x="96" y="0"/>
      <point x="251" y="0" type="curve" smooth="yes"/>
      <point x="539" y="0" type="line"/>
      <point x="539" y="255" type="line" smooth="yes"/>
      <point x="539" y="405"/>
      <point x="494" y="553"/>
      <point x="257" y="616" type="curve" smooth="yes"/>
      <point x="40" y="674" type="line"/>
      <point x="40" y="546" type="line"/>
      <point x="205" y="503" type="line" smooth="yes"/>
      <point x="371" y="460"/>
      <point x="402" y="359"/>
      <point x="402" y="254" type="curve" smooth="yes"/>
      <point x="402" y="120" type="line"/>
      <point x="263" y="120" type="line" smooth="yes"/>
      <point x="203" y="120"/>
      <point x="180" y="137"/>
      <point x="180" y="216" type="curve" smooth="yes"/>
      <point x="180" y="431"/>
      <point x="354" y="597"/>
    </contour>
  </outline>
</glyph>
<glyph name="uni0544" format="2">
  <advance width="653"/>
  <unicode hex="0544"/>
  <note>
uni0544
</note>
  <outline>
    <contour>
      <point x="285" y="-10" type="curve" smooth="yes"/>
      <point x="427" y="-10"/>
      <point x="506" y="69"/>
      <point x="506" y="233" type="curve" smooth="yes"/>
      <point x="506" y="594" type="line"/>
      <point x="639" y="594" type="line"/>
      <point x="639" y="714" type="line"/>
      <point x="369" y="714" type="line"/>
      <point x="369" y="240" type="line" smooth="yes"/>
      <point x="369" y="146"/>
      <point x="339" y="110"/>
      <point x="283" y="110" type="curve" smooth="yes"/>
      <point x="227" y="110"/>
      <point x="197" y="143"/>
      <point x="197" y="241" type="curve" smooth="yes"/>
      <point x="197" y="714" type="line"/>
      <point x="60" y="714" type="line"/>
      <point x="60" y="236" type="line" smooth="yes"/>
      <point x="60" y="69"/>
      <point x="143" y="-10"/>
    </contour>
  </outline>
</glyph>
<glyph name="uni0545" format="2">
  <advance width="503"/>
  <unicode hex="0545"/>
  <note>
uni0545
</note>
  <outline>
    <contour>
      <point x="437" y="549" type="curve" smooth="yes"/>
      <point x="437" y="654"/>
      <point x="361" y="724"/>
      <point x="244" y="724" type="curve" smooth="yes"/>
      <point x="156" y="724"/>
      <point x="103" y="707"/>
      <point x="45" y="658" type="curve"/>
      <point x="97" y="555" type="line"/>
      <point x="128" y="586"/>
      <point x="166" y="604"/>
      <point x="214" y="604" type="curve" smooth="yes"/>
      <point x="269" y="604"/>
      <point x="299" y="576"/>
      <point x="299" y="523" type="curve" smooth="yes"/>
      <point x="299" y="455"/>
      <point x="264" y="431"/>
      <point x="179" y="431" type="curve" smooth="yes"/>
      <point x="36" y="431" type="line"/>
      <point x="36" y="311" type="line"/>
      <point x="184" y="311" type="line" smooth="yes"/>
      <point x="271" y="311"/>
      <point x="316" y="279"/>
      <point x="316" y="212" type="curve" smooth="yes"/>
      <point x="316" y="139"/>
      <point x="277" y="110"/>
      <point x="195" y="110" type="curve" smooth="yes"/>
      <point x="148" y="110"/>
      <point x="84" y="127"/>
      <point x="45" y="153" type="curve"/>
      <point x="45" y="23" type="line"/>
      <point x="92" y="1"/>
      <point x="150" y="-10"/>
      <point x="216" y="-10" type="curve" smooth="yes"/>
      <point x="386" y="-10"/>
      <point x="456" y="79"/>
      <point x="456" y="200" type="curve" smooth="yes"/>
      <point x="456" y="299"/>
      <point x="405" y="361"/>
      <point x="310" y="372" type="curve"/>
      <point x="310" y="376" type="line"/>
      <point x="394" y="395"/>
      <point x="437" y="454"/>
    </contour>
  </outline>
</glyph>
<glyph name="uni0546" format="2">
  <advance width="543"/>
  <unicode hex="0546"/>
  <note>
uni0546
</note>
  <outline>
    <contour>
      <point x="272" y="-10" type="curve" smooth="yes"/>
      <point x="414" y="-10"/>
      <point x="498" y="69"/>
      <point x="498" y="236" type="curve" smooth="yes"/>
      <point x="498" y="418" type="line"/>
      <point x="361" y="418" type="line"/>
      <point x="361" y="241" type="line" smooth="yes"/>
      <point x="361" y="143"/>
      <point x="330" y="110"/>
      <point x="274" y="110" type="curve" smooth="yes"/>
      <point x="218" y="110"/>
      <point x="187" y="146"/>
      <point x="187" y="266" type="curve"/>
      <point x="50" y="266" type="line"/>
      <point x="50" y="69"/>
      <point x="130" y="-10"/>
    </contour>
    <contour>
      <point x="301" y="639" type="line"/>
      <point x="250" y="639" type="line" smooth="yes"/>
      <point x="207" y="639"/>
      <point x="188" y="660"/>
      <point x="188" y="702" type="curve" smooth="yes"/>
      <point x="188" y="760" type="line"/>
      <point x="51" y="760" type="line"/>
      <point x="51" y="698" type="line" smooth="yes"/>
      <point x="51" y="585"/>
      <point x="93" y="550"/>
      <point x="186" y="550" type="curve" smooth="yes"/>
      <point x="235" y="550" type="line"/>
      <point x="308" y="630" type="line"/>
    </contour>
    <contour>
      <point x="187" y="266" type="line"/>
      <point x="187" y="395"/>
      <point x="224" y="499"/>
      <point x="308" y="630" type="curve"/>
      <point x="180" y="630" type="line"/>
      <point x="93" y="500"/>
      <point x="50" y="396"/>
      <point x="50" y="266" type="curve"/>
    </contour>
  </outline>
</glyph>
<glyph name="uni0547" format="2">
  <advance width="554"/>
  <unicode hex="0547"/>
  <note>
uni0547
</note>
  <outline>
    <contour>
      <point x="352" y="572" type="curve"/>
      <point x="272" y="654" type="line"/>
      <point x="133" y="534"/>
      <point x="50" y="405"/>
      <point x="50" y="233" type="curve" smooth="yes"/>
      <point x="50" y="69"/>
      <point x="130" y="-10"/>
      <point x="272" y="-10" type="curve" smooth="yes"/>
      <point x="414" y="-10"/>
      <point x="498" y="69"/>
      <point x="498" y="236" type="curve" smooth="yes"/>
      <point x="498" y="283" type="line"/>
      <point x="361" y="283" type="line"/>
      <point x="361" y="241" type="line" smooth="yes"/>
      <point x="361" y="143"/>
      <point x="330" y="110"/>
      <point x="274" y="110" type="curve" smooth="yes"/>
      <point x="218" y="110"/>
      <point x="187" y="146"/>
      <point x="187" y="220" type="curve" smooth="yes"/>
      <point x="187" y="361"/>
      <point x="254" y="480"/>
    </contour>
    <contour>
      <point x="68" y="724" type="line"/>
      <point x="45" y="599" type="line"/>
      <point x="490" y="516" type="line"/>
      <point x="513" y="640" type="line"/>
    </contour>
  </outline>
</glyph>
<glyph name="uni0548" format="2">
  <advance width="565"/>
  <unicode hex="0548"/>
  <note>
uni0548
</note>
  <anchor x="282" y="714" name="top"/>
  <outline>
    <contour>
      <point x="60" y="0" type="line"/>
      <point x="197" y="0" type="line"/>
      <point x="197" y="473" type="line" smooth="yes"/>
      <point x="197" y="571"/>
      <point x="227" y="604"/>
      <point x="283" y="604" type="curve" smooth="yes"/>
      <point x="339" y="604"/>
      <point x="369" y="568"/>
      <point x="369" y="474" type="curve" smooth="yes"/>
      <point x="369" y="0" type="line"/>
      <point x="506" y="0" type="line"/>
      <point x="506" y="481" type="line" smooth="yes"/>
      <point x="506" y="645"/>
      <point x="427" y="724"/>
      <point x="285" y="724" type="curve" smooth="yes"/>
      <point x="143" y="724"/>
      <point x="60" y="645"/>
      <point x="60" y="478" type="curve" smooth="yes"/>
    </contour>
  </outline>
</glyph>
<glyph name="uni0549" format="2">
  <advance width="536"/>
  <unicode hex="0549"/>
  <note>
uni0549
</note>
  <outline>
    <contour>
      <point x="298" y="109" type="line"/>
      <point x="433" y="231"/>
      <point x="491" y="367"/>
      <point x="491" y="506" type="curve" smooth="yes"/>
      <point x="491" y="645"/>
      <point x="411" y="724"/>
      <point x="269" y="724" type="curve" smooth="yes"/>
      <point x="127" y="724"/>
      <point x="43" y="645"/>
      <point x="43" y="478" type="curve" smooth="yes"/>
      <point x="43" y="447" type="line"/>
      <point x="180" y="447" type="line"/>
      <point x="180" y="473" type="line" smooth="yes"/>
      <point x="180" y="571"/>
      <point x="211" y="604"/>
      <point x="267" y="604" type="curve" smooth="yes"/>
      <point x="323" y="604"/>
      <point x="354" y="568"/>
      <point x="354" y="499" type="curve" smooth="yes"/>
      <point x="354" y="364"/>
      <point x="288" y="256"/>
      <point x="171" y="147" type="curve"/>
    </contour>
    <contour>
      <point x="477" y="0" type="curve"/>
      <point x="477" y="125" type="line"/>
      <point x="329" y="153"/>
      <point x="239" y="206"/>
      <point x="125" y="313" type="curve"/>
      <point x="35" y="224" type="line"/>
      <point x="155" y="82"/>
      <point x="327" y="11"/>
    </contour>
  </outline>
</glyph>
<glyph name="uni054A" format="2">
  <advance width="689"/>
  <unicode hex="054A"/>
  <note>
uni054A
</note>
  <outline>
    <contour>
      <point x="47" y="330" type="line"/>
      <point x="184" y="330" type="line"/>
      <point x="184" y="473" type="line" smooth="yes"/>
      <point x="184" y="571"/>
      <point x="235" y="604"/>
      <point x="338" y="604" type="curve" smooth="yes"/>
      <point x="439" y="604"/>
      <point x="492" y="568"/>
      <point x="492" y="474" type="curve" smooth="yes"/>
      <point x="492" y="0" type="line"/>
      <point x="629" y="0" type="line"/>
      <point x="629" y="481" type="line" smooth="yes"/>
      <point x="629" y="645"/>
      <point x="526" y="724"/>
      <point x="340" y="724" type="curve" smooth="yes"/>
      <point x="155" y="724"/>
      <point x="47" y="645"/>
      <point x="47" y="478" type="curve" smooth="yes"/>
    </contour>
    <contour>
      <point x="270" y="165" type="line"/>
      <point x="407" y="165" type="line"/>
      <point x="407" y="640" type="line"/>
      <point x="270" y="640" type="line"/>
    </contour>
  </outline>
</glyph>
<glyph name="uni054B" format="2">
  <advance width="540"/>
  <unicode hex="054B"/>
  <note>
uni054B
</note>
  <outline>
    <contour>
      <point x="400" y="0" type="line"/>
      <point x="526" y="0" type="line"/>
      <point x="526" y="67" type="line" smooth="yes"/>
      <point x="526" y="157"/>
      <point x="484" y="193"/>
      <point x="401" y="193" type="curve" smooth="yes"/>
      <point x="140" y="193" type="line"/>
      <point x="140" y="233" type="line"/>
      <point x="22" y="233" type="line"/>
      <point x="22" y="0" type="line"/>
      <point x="140" y="0" type="line"/>
      <point x="140" y="73" type="line"/>
      <point x="349" y="73" type="line" smooth="yes"/>
      <point x="392" y="73"/>
      <point x="400" y="56"/>
      <point x="400" y="25" type="curve" smooth="yes"/>
    </contour>
    <contour>
      <point x="280" y="278" type="curve"/>
      <point x="269" y="320"/>
      <point x="253" y="342"/>
      <point x="227" y="368" type="curve" smooth="yes"/>
      <point x="196" y="399"/>
      <point x="181" y="439"/>
      <point x="181" y="490" type="curve" smooth="yes"/>
      <point x="181" y="565"/>
      <point x="208" y="604"/>
      <point x="263" y="604" type="curve" smooth="yes"/>
      <point x="322" y="604"/>
      <point x="350" y="564"/>
      <point x="350" y="479" type="curve" smooth="yes"/>
      <point x="350" y="409"/>
      <point x="329" y="337"/>
    </contour>
    <contour>
      <point x="164" y="193" type="curve"/>
      <point x="341" y="193" type="line"/>
      <point x="446" y="289"/>
      <point x="487" y="376"/>
      <point x="487" y="488" type="curve" smooth="yes"/>
      <point x="487" y="641"/>
      <point x="403" y="724"/>
      <point x="263" y="724" type="curve" smooth="yes"/>
      <point x="131" y="724"/>
      <point x="44" y="638"/>
      <point x="44" y="496" type="curve" smooth="yes"/>
      <point x="44" y="406"/>
      <point x="66" y="345"/>
      <point x="134" y="298" type="curve" smooth="yes"/>
      <point x="176" y="269"/>
      <point x="196" y="243"/>
      <point x="196" y="208" type="curve"/>
      <point x="189" y="201"/>
      <point x="175" y="195"/>
    </contour>
  </outline>
</glyph>
<glyph name="uni054D" format="2">
  <advance width="565"/>
  <unicode hex="054D"/>
  <note>
uni054D
</note>
  <outline>
    <contour>
      <point x="506" y="714" type="line"/>
      <point x="369" y="714" type="line"/>
      <point x="369" y="241" type="line" smooth="yes"/>
      <point x="369" y="143"/>
      <point x="339" y="110"/>
      <point x="283" y="110" type="curve" smooth="yes"/>
      <point x="227" y="110"/>
      <point x="197" y="146"/>
      <point x="197" y="240" type="curve" smooth="yes"/>
      <point x="197" y="714" type="line"/>
      <point x="60" y="714" type="line"/>
      <point x="60" y="233" type="line" smooth="yes"/>
      <point x="60" y="69"/>
      <point x="139" y="-10"/>
      <point x="281" y="-10" type="curve" smooth="yes"/>
      <point x="423" y="-10"/>
      <point x="506" y="69"/>
      <point x="506" y="236" type="curve" smooth="yes"/>
    </contour>
  </outline>
</glyph>
<glyph name="uni054E" format="2">
  <advance width="629"/>
  <unicode hex="054E"/>
  <note>
uni054E
</note>
  <outline>
    <contour>
      <point x="485" y="0" type="line"/>
      <point x="485" y="714" type="line"/>
      <point x="348" y="714" type="line"/>
      <point x="348" y="236" type="line"/>
      <point x="353" y="236" type="line"/>
      <point x="350" y="211"/>
      <point x="348" y="177"/>
      <point x="348" y="135" type="curve" smooth="yes"/>
      <point x="348" y="0" type="line"/>
    </contour>
    <contour>
      <point x="361" y="461" type="line"/>
      <point x="348" y="461" type="line"/>
      <point x="348" y="406" type="line" smooth="yes"/>
      <point x="348" y="324"/>
      <point x="311" y="273"/>
      <point x="257" y="273" type="curve" smooth="yes"/>
      <point x="192" y="273"/>
      <point x="177" y="309"/>
      <point x="177" y="380" type="curve" smooth="yes"/>
      <point x="177" y="471" type="line"/>
      <point x="40" y="471" type="line"/>
      <point x="40" y="337" type="line" smooth="yes"/>
      <point x="40" y="209"/>
      <point x="100" y="153"/>
      <point x="209" y="153" type="curve" smooth="yes"/>
      <point x="267" y="153"/>
      <point x="329" y="182"/>
      <point x="361" y="261" type="curve"/>
    </contour>
    <contour>
      <point x="472" y="120" type="line"/>
      <point x="472" y="0" type="line"/>
      <point x="614" y="0" type="line"/>
      <point x="614" y="120" type="line"/>
    </contour>
  </outline>
</glyph>
<glyph name="uni054F" format="2">
  <advance width="467"/>
  <unicode hex="054F"/>
  <note>
uni054F
</note>
  <outline>
    <contour>
      <point x="437" y="210" type="curve" smooth="yes"/>
      <point x="437" y="301"/>
      <point x="390" y="355"/>
      <point x="292" y="411" type="curve" smooth="yes"/>
      <point x="202" y="462"/>
      <point x="175" y="482"/>
      <point x="175" y="529" type="curve" smooth="yes"/>
      <point x="175" y="575"/>
      <point x="199" y="604"/>
      <point x="255" y="604" type="curve" smooth="yes"/>
      <point x="295" y="604"/>
      <point x="343" y="591"/>
      <point x="398" y="563" type="curve"/>
      <point x="435" y="678" type="line"/>
      <point x="377" y="708"/>
      <point x="317" y="724"/>
      <point x="257" y="724" type="curve" smooth="yes"/>
      <point x="115" y="724"/>
      <point x="35" y="647"/>
      <point x="35" y="522" type="curve" smooth="yes"/>
      <point x="35" y="414"/>
      <point x="93" y="365"/>
      <point x="190" y="312" type="curve" smooth="yes"/>
      <point x="285" y="260"/>
      <point x="306" y="233"/>
      <point x="306" y="190" type="curve" smooth="yes"/>
      <point x="306" y="142"/>
      <point x="278" y="110"/>
      <point x="209" y="110" type="curve" smooth="yes"/>
      <point x="156" y="110"/>
      <point x="88" y="129"/>
      <point x="31" y="162" type="curve"/>
      <point x="31" y="30" type="line"/>
      <point x="87" y="0"/>
      <point x="145" y="-10"/>
      <point x="206" y="-10" type="curve" smooth="yes"/>
      <point x="349" y="-10"/>
      <point x="437" y="78"/>
    </contour>
  </outline>
</glyph>
<glyph name="uni0551" format="2">
  <advance width="506"/>
  <unicode hex="0551"/>
  <note>
uni0551
</note>
  <outline>
    <contour>
      <point x="280" y="433" type="line"/>
      <point x="189" y="469"/>
      <point x="167" y="503"/>
      <point x="167" y="544" type="curve" smooth="yes"/>
      <point x="167" y="585"/>
      <point x="192" y="614"/>
      <point x="241" y="614" type="curve" smooth="yes"/>
      <point x="285" y="614"/>
      <point x="311" y="587"/>
      <point x="311" y="544" type="curve" smooth="yes"/>
      <point x="311" y="505"/>
      <point x="290" y="479"/>
      <point x="255" y="464" type="curve" smooth="yes"/>
      <point x="38" y="371" type="line"/>
      <point x="82" y="271" type="line"/>
      <point x="237" y="335" type="line"/>
      <point x="306" y="299"/>
      <point x="335" y="260"/>
      <point x="335" y="209" type="curve" smooth="yes"/>
      <point x="335" y="151"/>
      <point x="294" y="110"/>
      <point x="215" y="110" type="curve" smooth="yes"/>
      <point x="165" y="110"/>
      <point x="96" y="131"/>
      <point x="50" y="161" type="curve"/>
      <point x="50" y="32" type="line"/>
      <point x="97" y="8"/>
      <point x="148" y="-10"/>
      <point x="224" y="-10" type="curve" smooth="yes"/>
      <point x="380" y="-10"/>
      <point x="472" y="72"/>
      <point x="472" y="204" type="curve" smooth="yes"/>
      <point x="472" y="294"/>
      <point x="443" y="347"/>
      <point x="353" y="400" type="curve"/>
      <point x="353" y="404" type="line"/>
      <point x="407" y="440"/>
      <point x="437" y="489"/>
      <point x="437" y="567" type="curve" smooth="yes"/>
      <point x="437" y="666"/>
      <point x="364" y="724"/>
      <point x="244" y="724" type="curve" smooth="yes"/>
      <point x="120" y="724"/>
      <point x="41" y="658"/>
      <point x="41" y="569" type="curve" smooth="yes"/>
      <point x="41" y="479"/>
      <point x="69" y="415"/>
      <point x="190" y="357" type="curve"/>
    </contour>
  </outline>
</glyph>
<glyph name="uni0552" format="2">
  <advance width="504"/>
  <unicode hex="0552"/>
  <note>
uni0552
</note>
  <outline>
    <contour>
      <point x="63" y="-1" type="line"/>
      <point x="199" y="-1" type="line"/>
      <point x="199" y="440" type="line"/>
      <point x="220" y="440" type="line" smooth="yes"/>
      <point x="249" y="440"/>
      <point x="259" y="434"/>
      <point x="296" y="336" type="curve" smooth="yes"/>
      <point x="345" y="207"/>
      <point x="376" y="190"/>
      <point x="440" y="190" type="curve" smooth="yes"/>
      <point x="489" y="190" type="line"/>
      <point x="489" y="310" type="line"/>
      <point x="471" y="310" type="line" smooth="yes"/>
      <point x="443" y="310"/>
      <point x="431" y="319"/>
      <point x="394" y="417" type="curve" smooth="yes"/>
      <point x="346" y="545"/>
      <point x="327" y="560"/>
      <point x="239" y="560" type="curve" smooth="yes"/>
      <point x="199" y="560" type="line"/>
      <point x="199" y="715" type="line"/>
      <point x="63" y="715" type="line"/>
    </contour>
  </outline>
</glyph>
<glyph name="uni0553" format="2">
  <advance width="690"/>
  <unicode hex="0553"/>
  <note>
uni0553
</note>
  <outline>
    <contour>
      <point x="410" y="714" type="line"/>
      <point x="280" y="714" type="line"/>
      <point x="280" y="636" type="line"/>
      <point x="110" y="636"/>
      <point x="35" y="522"/>
      <point x="35" y="371" type="curve" smooth="yes"/>
      <point x="35" y="202"/>
      <point x="122" y="100"/>
      <point x="280" y="100" type="curve"/>
      <point x="280" y="0" type="line"/>
      <point x="410" y="0" type="line"/>
      <point x="410" y="100" type="line"/>
      <point x="564" y="100"/>
      <point x="654" y="203"/>
      <point x="654" y="369" type="curve" smooth="yes"/>
      <point x="654" y="528"/>
      <point x="565" y="636"/>
      <point x="410" y="636" type="curve"/>
    </contour>
    <contour>
      <point x="280" y="522" type="curve"/>
      <point x="280" y="214" type="line"/>
      <point x="213" y="214"/>
      <point x="170" y="258"/>
      <point x="170" y="371" type="curve" smooth="yes"/>
      <point x="170" y="473"/>
      <point x="210" y="522"/>
    </contour>
    <contour>
      <point x="410" y="522" type="line"/>
      <point x="478" y="522"/>
      <point x="520" y="470"/>
      <point x="520" y="371" type="curve" smooth="yes"/>
      <point x="520" y="263"/>
      <point x="479" y="214"/>
      <point x="410" y="214" type="curve"/>
    </contour>
  </outline>
</glyph>
<glyph name="uni0554" format="2">
  <advance width="539"/>
  <unicode hex="0554"/>
  <note>
uni0554
</note>
  <outline>
    <contour>
      <point x="83" y="0" type="line"/>
      <point x="220" y="0" type="line"/>
      <point x="220" y="306" type="line"/>
      <point x="296" y="306" type="line" smooth="yes"/>
      <point x="427" y="306"/>
      <point x="506" y="382"/>
      <point x="506" y="514" type="curve" smooth="yes"/>
      <point x="506" y="654"/>
      <point x="425" y="724"/>
      <point x="297" y="724" type="curve" smooth="yes"/>
      <point x="160" y="724"/>
      <point x="83" y="642"/>
      <point x="83" y="429" type="curve" smooth="yes"/>
    </contour>
    <contour>
      <point x="220" y="426" type="line"/>
      <point x="220" y="559"/>
      <point x="235" y="604"/>
      <point x="295" y="604" type="curve" smooth="yes"/>
      <point x="346" y="604"/>
      <point x="369" y="576"/>
      <point x="369" y="514" type="curve" smooth="yes"/>
      <point x="369" y="456"/>
      <point x="337" y="426"/>
      <point x="280" y="426" type="curve" smooth="yes"/>
    </contour>
    <contour>
      <point x="14" y="232" type="line"/>
      <point x="14" y="112" type="line"/>
      <point x="425" y="112" type="line"/>
      <point x="425" y="232" type="line"/>
    </contour>
  </outline>
</glyph>
<glyph name="uni0555" format="2">
  <advance width="596"/>
  <unicode hex="0555"/>
  <note>
uni0555
</note>
  <anchor x="298" y="714" name="top"/>
  <outline>
    <contour>
      <point x="553" y="358" type="curve" smooth="yes"/>
      <point x="553" y="592"/>
      <point x="469" y="725"/>
      <point x="298" y="725" type="curve" smooth="yes"/>
      <point x="132" y="725"/>
      <point x="42" y="598"/>
      <point x="42" y="359" type="curve" smooth="yes"/>
      <point x="42" y="131"/>
      <point x="126" y="-10"/>
      <point x="298" y="-10" type="curve" smooth="yes"/>
      <point x="471" y="-10"/>
      <point x="553" y="129"/>
    </contour>
    <contour>
      <point x="185" y="358" type="curve" smooth="yes"/>
      <point x="185" y="521"/>
      <point x="223" y="605"/>
      <point x="299" y="605" type="curve" smooth="yes"/>
      <point x="374" y="605"/>
      <point x="411" y="525"/>
      <point x="411" y="358" type="curve" smooth="yes"/>
      <point x="411" y="191"/>
      <point x="375" y="110"/>
      <point x="299" y="110" type="curve" smooth="yes"/>
      <point x="224" y="110"/>
      <point x="185" y="196"/>
    </contour>
  </outline>
</glyph>
<glyph name="uni0556" format="2">
  <advance width="644"/>
  <unicode hex="0556"/>
  <note>
uni0556
</note>
  <outline>
    <contour>
      <point x="318" y="-10" type="curve" smooth="yes"/>
      <point x="520" y="-10"/>
      <point x="612" y="63"/>
      <point x="612" y="215" type="curve" smooth="yes"/>
      <point x="612" y="341"/>
      <point x="552" y="406"/>
      <point x="392" y="430" type="curve"/>
      <point x="392" y="714" type="line"/>
      <point x="257" y="714" type="line" smooth="yes"/>
      <point x="128" y="714"/>
      <point x="47" y="639"/>
      <point x="47" y="519" type="curve" smooth="yes"/>
      <point x="47" y="404"/>
      <point x="115" y="345"/>
      <point x="259" y="323" type="curve"/>
      <point x="259" y="110" type="line"/>
      <point x="189" y="114"/>
      <point x="111" y="148"/>
      <point x="34" y="194" type="curve"/>
      <point x="34" y="54" type="line"/>
      <point x="105" y="13"/>
      <point x="203" y="-10"/>
    </contour>
    <contour>
      <point x="392" y="110" type="curve"/>
      <point x="392" y="310" type="line"/>
      <point x="449" y="302"/>
      <point x="475" y="273"/>
      <point x="475" y="212" type="curve" smooth="yes"/>
      <point x="475" y="145"/>
      <point x="449" y="112"/>
    </contour>
    <contour>
      <point x="259" y="443" type="line"/>
      <point x="209" y="450"/>
      <point x="184" y="478"/>
      <point x="184" y="522" type="curve" smooth="yes"/>
      <point x="184" y="565"/>
      <point x="201" y="594"/>
      <point x="243" y="594" type="curve" smooth="yes"/>
      <point x="259" y="594" type="line"/>
    </contour>
  </outline>
</glyph>
<glyph name="uni0559" format="2">
  <advance width="201"/>
  <unicode hex="0559"/>
  <note>
uni0559
</note>
  <outline>
    <contour>
      <point x="163" y="434" type="curve"/>
      <point x="163" y="561" type="line"/>
      <point x="138" y="561"/>
      <point x="127" y="570"/>
      <point x="127" y="601" type="curve" smooth="yes"/>
      <point x="127" y="630"/>
      <point x="146" y="664"/>
      <point x="181" y="695" type="curve"/>
      <point x="128" y="765" type="line"/>
      <point x="53" y="717"/>
      <point x="9" y="651"/>
      <point x="9" y="579" type="curve" smooth="yes"/>
      <point x="9" y="484"/>
      <point x="65" y="434"/>
    </contour>
  </outline>
</glyph>
<glyph name="uni055A" format="2">
  <advance width="201"/>
  <unicode hex="055A"/>
  <note>
uni055A
</note>
  <outline>
    <contour>
      <point x="38" y="761" type="curve"/>
      <point x="38" y="633" type="line"/>
      <point x="63" y="633"/>
      <point x="74" y="624"/>
      <point x="74" y="593" type="curve" smooth="yes"/>
      <point x="74" y="565"/>
      <point x="54" y="530"/>
      <point x="20" y="500" type="curve"/>
      <point x="72" y="430" type="line"/>
      <point x="148" y="477"/>
      <point x="192" y="543"/>
      <point x="192" y="616" type="curve" smooth="yes"/>
      <point x="192" y="710"/>
      <point x="134" y="761"/>
    </contour>
  </outline>
</glyph>
<glyph name="uni055B" format="2">
  <advance width="271"/>
  <unicode hex="055B"/>
  <note>
uni055B
</note>
  <outline>
    <contour>
      <point x="205" y="815" type="line"/>
      <point x="81" y="815" type="line"/>
      <point x="75" y="745"/>
      <point x="63" y="672"/>
      <point x="49" y="604" type="curve"/>
      <point x="158" y="604" type="line"/>
      <point x="172" y="640"/>
      <point x="204" y="748"/>
      <point x="214" y="801" type="curve"/>
    </contour>
  </outline>
</glyph>
<glyph name="uni055C" format="2">
  <advance width="243"/>
  <unicode hex="055C"/>
  <note>
uni055C
</note>
  <outline>
    <contour>
      <point x="13" y="602" type="curve"/>
      <point x="128" y="602" type="line"/>
      <point x="128" y="615" type="line" smooth="yes"/>
      <point x="128" y="640"/>
      <point x="138" y="656"/>
      <point x="170" y="679" type="curve" smooth="yes"/>
      <point x="225" y="718"/>
      <point x="230" y="739"/>
      <point x="230" y="816" type="curve"/>
      <point x="115" y="816" type="line"/>
      <point x="115" y="802" type="line" smooth="yes"/>
      <point x="115" y="771"/>
      <point x="110" y="762"/>
      <point x="67" y="728" type="curve" smooth="yes"/>
      <point x="13" y="685"/>
      <point x="13" y="656"/>
    </contour>
  </outline>
</glyph>
<glyph name="uni055D" format="2">
  <advance width="271"/>
  <unicode hex="055D"/>
  <note>
uni055D
</note>
  <outline>
    <contour>
      <point x="67" y="815" type="line"/>
      <point x="58" y="801" type="line"/>
      <point x="68" y="748"/>
      <point x="100" y="640"/>
      <point x="114" y="604" type="curve"/>
      <point x="223" y="604" type="line"/>
      <point x="208" y="672"/>
      <point x="197" y="745"/>
      <point x="191" y="815" type="curve"/>
    </contour>
  </outline>
</glyph>
<glyph name="uni055E" format="2">
  <advance width="353"/>
  <unicode hex="055E"/>
  <note>
uni055E
</note>
  <outline>
    <contour>
      <point x="39" y="584" type="curve"/>
      <point x="146" y="584" type="line"/>
      <point x="147" y="685"/>
      <point x="165" y="728"/>
      <point x="193" y="728" type="curve" smooth="yes"/>
      <point x="211" y="728"/>
      <point x="220" y="719"/>
      <point x="220" y="702" type="curve" smooth="yes"/>
      <point x="220" y="685"/>
      <point x="212" y="677"/>
      <point x="189" y="677" type="curve"/>
      <point x="189" y="586" type="line"/>
      <point x="273" y="586"/>
      <point x="321" y="630"/>
      <point x="321" y="709" type="curve" smooth="yes"/>
      <point x="321" y="784"/>
      <point x="276" y="830"/>
      <point x="207" y="830" type="curve" smooth="yes"/>
      <point x="98" y="830"/>
      <point x="40" y="748"/>
    </contour>
  </outline>
</glyph>
<glyph name="uni055F" format="2">
  <advance width="318"/>
  <unicode hex="055F"/>
  <note>
uni055F
</note>
  <outline>
    <contour>
      <point x="152" y="600" type="curve" smooth="yes"/>
      <point x="310" y="600" type="line"/>
      <point x="310" y="702" type="line"/>
      <point x="159" y="702" type="line" smooth="yes"/>
      <point x="139" y="702"/>
      <point x="131" y="710"/>
      <point x="131" y="730" type="curve" smooth="yes"/>
      <point x="131" y="750"/>
      <point x="143" y="759"/>
      <point x="156" y="759" type="curve" smooth="yes"/>
      <point x="165" y="759"/>
      <point x="181" y="755"/>
      <point x="197" y="748" type="curve"/>
      <point x="226" y="844" type="line"/>
      <point x="199" y="855"/>
      <point x="172" y="860"/>
      <point x="148" y="860" type="curve" smooth="yes"/>
      <point x="78" y="860"/>
      <point x="27" y="803"/>
      <point x="27" y="727" type="curve" smooth="yes"/>
      <point x="27" y="642"/>
      <point x="67" y="600"/>
    </contour>
  </outline>
</glyph>
<glyph name="uni0560" format="2">
  <advance width="747"/>
  <unicode hex="0560"/>
  <note>
uni0561
</note>
  <outline>
    <contour>
      <point x="555" y="512" type="curve" smooth="yes"/>
      <point x="494" y="512"/>
      <point x="456" y="481"/>
      <point x="433" y="431" type="curve"/>
      <point x="423" y="431" type="line"/>
      <point x="409" y="476"/>
      <point x="374" y="512"/>
      <point x="309" y="512" type="curve" smooth="yes"/>
      <point x="242" y="512"/>
      <point x="199" y="477"/>
      <point x="179" y="427" type="curve"/>
      <point x="172" y="427" type="line"/>
      <point x="157" y="502" type="line"/>
      <point x="55" y="502" type="line"/>
      <point x="55" y="0" type="line"/>
      <point x="186" y="0" type="line"/>
      <point x="186" y="224" type="line" smooth="yes"/>
      <point x="186" y="336"/>
      <point x="205" y="396"/>
      <point x="257" y="396" type="curve" smooth="yes"/>
      <point x="291" y="396"/>
      <point x="310" y="359"/>
      <point x="310" y="273" type="curve" smooth="yes"/>
      <point x="310" y="0" type="line"/>
      <point x="440" y="0" type="line"/>
      <point x="440" y="237" type="line" smooth="yes"/>
      <point x="440" y="343"/>
      <point x="460" y="396"/>
      <point x="510" y="396" type="curve" smooth="yes"/>
      <point x="544" y="396"/>
      <point x="563" y="358"/>
      <point x="563" y="277" type="curve" smooth="yes"/>
      <point x="563" y="0" type="line"/>
      <point x="694" y="0" type="line"/>
      <point x="694" y="318" type="line" smooth="yes"/>
      <point x="694" y="450"/>
      <point x="647" y="512"/>
    </contour>
  </outline>
</glyph>
<glyph name="uni0561" format="2">
  <advance width="747"/>
  <unicode hex="0561"/>
  <note>
uni0561
</note>
  <anchor x="373" y="492" name="top"/>
  <outline>
    <contour>
      <point x="193" y="-10" type="curve" smooth="yes"/>
      <point x="254" y="-10"/>
      <point x="292" y="21"/>
      <point x="315" y="71" type="curve"/>
      <point x="325" y="71" type="line"/>
      <point x="339" y="26"/>
      <point x="374" y="-10"/>
      <point x="439" y="-10" type="curve" smooth="yes"/>
      <point x="506" y="-10"/>
      <point x="549" y="25"/>
      <point x="569" y="75" type="curve"/>
      <point x="576" y="75" type="line"/>
      <point x="591" y="0" type="line"/>
      <point x="693" y="0" type="line"/>
      <point x="693" y="502" type="line"/>
      <point x="562" y="502" type="line"/>
      <point x="562" y="278" type="line" smooth="yes"/>
      <point x="562" y="166"/>
      <point x="543" y="106"/>
      <point x="491" y="106" type="curve" smooth="yes"/>
      <point x="457" y="106"/>
      <point x="438" y="143"/>
      <point x="438" y="229" type="curve" smooth="yes"/>
      <point x="438" y="502" type="line"/>
      <point x="308" y="502" type="line"/>
      <point x="308" y="265" type="line" smooth="yes"/>
      <point x="308" y="159"/>
      <point x="288" y="106"/>
      <point x="238" y="106" type="curve" smooth="yes"/>
      <point x="204" y="106"/>
      <point x="185" y="144"/>
      <point x="185" y="225" type="curve" smooth="yes"/>
      <point x="185" y="502" type="line"/>
      <point x="54" y="502" type="line"/>
      <point x="54" y="184" type="line" smooth="yes"/>
      <point x="54" y="52"/>
      <point x="101" y="-10"/>
    </contour>
  </outline>
</glyph>
<glyph name="uni0563" format="2">
  <advance width="576"/>
  <unicode hex="0563"/>
  <note>
uni0563
</note>
  <outline>
    <contour>
      <point x="308" y="-238" type="line"/>
      <point x="439" y="-238" type="line"/>
      <point x="439" y="-1" type="line"/>
      <point x="570" y="-1" type="line"/>
      <point x="570" y="109" type="line"/>
      <point x="439" y="109" type="line"/>
      <point x="439" y="501" type="line"/>
      <point x="326" y="501" type="line"/>
      <point x="316" y="427" type="line"/>
      <point x="308" y="427" type="line"/>
      <point x="282" y="488"/>
      <point x="249" y="511"/>
      <point x="194" y="511" type="curve" smooth="yes"/>
      <point x="93" y="511"/>
      <point x="35" y="407"/>
      <point x="35" y="247" type="curve" smooth="yes"/>
      <point x="35" y="86"/>
      <point x="93" y="-10"/>
      <point x="189" y="-10" type="curve" smooth="yes"/>
      <point x="243" y="-10"/>
      <point x="281" y="18"/>
      <point x="308" y="78" type="curve"/>
      <point x="313" y="78" type="line"/>
      <point x="310" y="33"/>
      <point x="308" y="-3"/>
      <point x="308" y="-22" type="curve" smooth="yes"/>
    </contour>
    <contour>
      <point x="235" y="100" type="curve" smooth="yes"/>
      <point x="193" y="100"/>
      <point x="167" y="142"/>
      <point x="167" y="246" type="curve" smooth="yes"/>
      <point x="167" y="350"/>
      <point x="192" y="401"/>
      <point x="235" y="401" type="curve" smooth="yes"/>
      <point x="284" y="401"/>
      <point x="308" y="363"/>
      <point x="308" y="270" type="curve" smooth="yes"/>
      <point x="308" y="236" type="line" smooth="yes"/>
      <point x="308" y="142"/>
      <point x="283" y="100"/>
    </contour>
  </outline>
</glyph>
<glyph name="uni0565" format="2">
  <advance width="492"/>
  <unicode hex="0565"/>
  <note>
uni0565
</note>
  <outline>
    <contour>
      <point x="438" y="302" type="line"/>
      <point x="307" y="302" type="line"/>
      <point x="307" y="277" type="line" smooth="yes"/>
      <point x="307" y="166"/>
      <point x="283" y="110"/>
      <point x="236" y="110" type="curve" smooth="yes"/>
      <point x="201" y="110"/>
      <point x="185" y="139"/>
      <point x="185" y="200" type="curve" smooth="yes"/>
      <point x="185" y="760" type="line"/>
      <point x="54" y="760" type="line"/>
      <point x="54" y="168" type="line" smooth="yes"/>
      <point x="54" y="47"/>
      <point x="107" y="-10"/>
      <point x="200" y="-10" type="curve" smooth="yes"/>
      <point x="255" y="-10"/>
      <point x="297" y="14"/>
      <point x="318" y="56" type="curve"/>
      <point x="321" y="56" type="line"/>
      <point x="335" y="0" type="line"/>
      <point x="438" y="0" type="line"/>
    </contour>
    <contour>
      <point x="134" y="502" type="line"/>
      <point x="134" y="392" type="line"/>
      <point x="442" y="392" type="line"/>
      <point x="442" y="502" type="line"/>
    </contour>
  </outline>
</glyph>
<glyph name="uni0567" format="2">
  <advance width="389"/>
  <unicode hex="0567"/>
  <note>
uni0567
</note>
  <outline>
    <contour>
      <point x="55" y="0" type="line"/>
      <point x="186" y="0" type="line"/>
      <point x="186" y="760" type="line"/>
      <point x="55" y="760" type="line"/>
    </contour>
    <contour>
      <point x="135" y="502" type="line"/>
      <point x="135" y="392" type="line"/>
      <point x="368" y="392" type="line"/>
      <point x="368" y="502" type="line"/>
    </contour>
    <contour>
      <point x="55" y="0" type="line"/>
      <point x="189" y="0" type="line" smooth="yes"/>
      <point x="223" y="0"/>
      <point x="238" y="-14"/>
      <point x="238" y="-53" type="curve" smooth="yes"/>
      <point x="238" y="-86" type="line"/>
      <point x="367" y="-86" type="line"/>
      <point x="367" y="-46" type="line" smooth="yes"/>
      <point x="367" y="74"/>
      <point x="313" y="110"/>
      <point x="203" y="110" type="curve" smooth="yes"/>
      <point x="55" y="110" type="line"/>
    </contour>
  </outline>
</glyph>
<glyph name="uni0568" format="2">
  <advance width="492"/>
  <unicode hex="0568"/>
  <note>
uni0568
</note>
  <outline>
    <contour>
      <point x="55" y="-238" type="line"/>
      <point x="186" y="-238" type="line"/>
      <point x="186" y="225" type="line" smooth="yes"/>
      <point x="186" y="336"/>
      <point x="210" y="392"/>
      <point x="257" y="392" type="curve" smooth="yes"/>
      <point x="292" y="392"/>
      <point x="308" y="363"/>
      <point x="308" y="302" type="curve" smooth="yes"/>
      <point x="308" y="0" type="line"/>
      <point x="439" y="0" type="line"/>
      <point x="439" y="334" type="line" smooth="yes"/>
      <point x="439" y="455"/>
      <point x="386" y="512"/>
      <point x="293" y="512" type="curve" smooth="yes"/>
      <point x="237" y="512"/>
      <point x="196" y="488"/>
      <point x="175" y="446" type="curve"/>
      <point x="172" y="446" type="line"/>
      <point x="158" y="501" type="line"/>
      <point x="55" y="501" type="line"/>
    </contour>
    <contour>
      <point x="135" y="-129" type="line"/>
      <point x="135" y="-238" type="line"/>
      <point x="443" y="-238" type="line"/>
      <point x="443" y="-129" type="line"/>
    </contour>
  </outline>
</glyph>
<glyph name="uni0569" format="2">
  <advance width="623"/>
  <unicode hex="0569"/>
  <note>
uni0569
</note>
  <outline>
    <contour>
      <point x="56" y="-238" type="line"/>
      <point x="187" y="-238" type="line"/>
      <point x="187" y="270" type="line" smooth="yes"/>
      <point x="187" y="363"/>
      <point x="223" y="402"/>
      <point x="312" y="402" type="curve"/>
      <point x="337" y="512" type="line"/>
      <point x="265" y="512"/>
      <point x="214" y="482"/>
      <point x="186" y="428" type="curve"/>
      <point x="179" y="428" type="line"/>
      <point x="168" y="502" type="line"/>
      <point x="56" y="502" type="line"/>
    </contour>
    <contour>
      <point x="601" y="156" type="curve"/>
      <point x="630" y="256" type="line"/>
      <point x="573" y="286"/>
      <point x="477" y="309"/>
      <point x="390" y="309" type="curve" smooth="yes"/>
      <point x="285" y="309"/>
      <point x="229" y="248"/>
      <point x="229" y="143" type="curve" smooth="yes"/>
      <point x="229" y="53"/>
      <point x="286" y="-10"/>
      <point x="373" y="-10" type="curve" smooth="yes"/>
      <point x="499" y="-10"/>
      <point x="561" y="73"/>
      <point x="561" y="233" type="curve" smooth="yes"/>
      <point x="561" y="428"/>
      <point x="496" y="512"/>
      <point x="337" y="512" type="curve"/>
      <point x="312" y="402" type="line"/>
      <point x="402" y="402"/>
      <point x="424" y="366"/>
      <point x="424" y="232" type="curve" smooth="yes"/>
      <point x="424" y="129"/>
      <point x="414" y="94"/>
      <point x="373" y="94" type="curve" smooth="yes"/>
      <point x="350" y="94"/>
      <point x="339" y="112"/>
      <point x="339" y="146" type="curve" smooth="yes"/>
      <point x="339" y="183"/>
      <point x="356" y="205"/>
      <point x="390" y="205" type="curve" smooth="yes"/>
      <point x="465" y="205"/>
      <point x="549" y="186"/>
    </contour>
  </outline>
</glyph>
<glyph name="uni056A" format="2">
  <advance width="527"/>
  <unicode hex="056A"/>
  <note>
uni056A
</note>
  <outline>
    <contour>
      <point x="254" y="396" type="curve" smooth="yes"/>
      <point x="330" y="396"/>
      <point x="411" y="370"/>
      <point x="490" y="318" type="curve"/>
      <point x="531" y="421" type="line"/>
      <point x="429" y="487"/>
      <point x="350" y="512"/>
      <point x="254" y="512" type="curve" smooth="yes"/>
      <point x="116" y="512"/>
      <point x="35" y="413"/>
      <point x="35" y="245" type="curve" smooth="yes"/>
      <point x="35" y="82"/>
      <point x="106" y="-10"/>
      <point x="236" y="-10" type="curve" smooth="yes"/>
      <point x="364" y="-10"/>
      <point x="423" y="77"/>
      <point x="423" y="245" type="curve" smooth="yes"/>
      <point x="423" y="760" type="line"/>
      <point x="293" y="760" type="line"/>
      <point x="293" y="248" type="line" smooth="yes"/>
      <point x="293" y="145"/>
      <point x="278" y="106"/>
      <point x="236" y="106" type="curve" smooth="yes"/>
      <point x="190" y="106"/>
      <point x="172" y="152"/>
      <point x="172" y="248" type="curve" smooth="yes"/>
      <point x="172" y="343"/>
      <point x="198" y="396"/>
    </contour>
  </outline>
</glyph>
<glyph name="uni056B" format="2">
  <advance width="492"/>
  <unicode hex="056B"/>
  <note>
uni056B
</note>
  <outline>
    <contour>
      <point x="192" y="760" type="line"/>
      <point x="55" y="760" type="line"/>
      <point x="55" y="-238" type="line"/>
      <point x="186" y="-238" type="line"/>
      <point x="186" y="225" type="line" smooth="yes"/>
      <point x="186" y="336"/>
      <point x="210" y="392"/>
      <point x="257" y="392" type="curve" smooth="yes"/>
      <point x="292" y="392"/>
      <point x="308" y="363"/>
      <point x="308" y="302" type="curve" smooth="yes"/>
      <point x="308" y="0" type="line"/>
      <point x="439" y="0" type="line"/>
      <point x="439" y="334" type="line" smooth="yes"/>
      <point x="439" y="455"/>
      <point x="386" y="512"/>
      <point x="304" y="512" type="curve" smooth="yes"/>
      <point x="245" y="512"/>
      <point x="211" y="492"/>
      <point x="191" y="453" type="curve"/>
      <point x="187" y="453" type="line"/>
      <point x="190" y="479"/>
      <point x="192" y="505"/>
      <point x="192" y="530" type="curve" smooth="yes"/>
    </contour>
  </outline>
</glyph>
<glyph name="uni056C" format="2">
  <advance width="254"/>
  <unicode hex="056C"/>
  <note>
uni056C
</note>
  <outline>
    <contour>
      <point x="55" y="-238" type="line"/>
      <point x="284" y="-238" type="line"/>
      <point x="284" y="-128" type="line"/>
      <point x="186" y="-128" type="line"/>
      <point x="186" y="502" type="line"/>
      <point x="55" y="502" type="line"/>
    </contour>
  </outline>
</glyph>
<glyph name="uni056D" format="2">
  <advance width="747"/>
  <unicode hex="056D"/>
  <note>
uni056D
</note>
  <outline>
    <contour>
      <point x="561" y="502" type="line"/>
      <point x="561" y="277" type="line" smooth="yes"/>
      <point x="561" y="166"/>
      <point x="537" y="110"/>
      <point x="490" y="110" type="curve" smooth="yes"/>
      <point x="455" y="110"/>
      <point x="439" y="139"/>
      <point x="439" y="200" type="curve" smooth="yes"/>
      <point x="439" y="334" type="line" smooth="yes"/>
      <point x="439" y="455"/>
      <point x="386" y="512"/>
      <point x="304" y="512" type="curve" smooth="yes"/>
      <point x="245" y="512"/>
      <point x="211" y="492"/>
      <point x="191" y="453" type="curve"/>
      <point x="187" y="453" type="line"/>
      <point x="190" y="479"/>
      <point x="192" y="505"/>
      <point x="192" y="530" type="curve" smooth="yes"/>
      <point x="192" y="760" type="line"/>
      <point x="55" y="760" type="line"/>
      <point x="55" y="-238" type="line"/>
      <point x="186" y="-238" type="line"/>
      <point x="186" y="225" type="line" smooth="yes"/>
      <point x="186" y="336"/>
      <point x="210" y="392"/>
      <point x="257" y="392" type="curve" smooth="yes"/>
      <point x="292" y="392"/>
      <point x="308" y="363"/>
      <point x="308" y="302" type="curve" smooth="yes"/>
      <point x="308" y="168" type="line" smooth="yes"/>
      <point x="308" y="47"/>
      <point x="361" y="-10"/>
      <point x="454" y="-10" type="curve" smooth="yes"/>
      <point x="510" y="-10"/>
      <point x="551" y="14"/>
      <point x="572" y="56" type="curve"/>
      <point x="575" y="56" type="line"/>
      <point x="589" y="0" type="line"/>
      <point x="692" y="0" type="line"/>
      <point x="692" y="502" type="line"/>
    </contour>
  </outline>
</glyph>
<glyph name="uni056E" format="2">
  <advance width="500"/>
  <unicode hex="056E"/>
  <note>
uni056E
</note>
  <outline>
    <contour>
      <point x="238" y="392" type="curve" smooth="yes"/>
      <point x="486" y="392" type="line"/>
      <point x="486" y="502" type="line"/>
      <point x="219" y="502" type="line" smooth="yes"/>
      <point x="116" y="502"/>
      <point x="35" y="412"/>
      <point x="35" y="245" type="curve" smooth="yes"/>
      <point x="35" y="82"/>
      <point x="106" y="-10"/>
      <point x="236" y="-10" type="curve" smooth="yes"/>
      <point x="364" y="-10"/>
      <point x="423" y="77"/>
      <point x="423" y="229" type="curve" smooth="yes"/>
      <point x="423" y="397"/>
      <point x="365" y="554"/>
      <point x="249" y="710" type="curve"/>
      <point x="149" y="633" type="line"/>
      <point x="252" y="495"/>
      <point x="293" y="395"/>
      <point x="293" y="233" type="curve" smooth="yes"/>
      <point x="293" y="145"/>
      <point x="278" y="106"/>
      <point x="236" y="106" type="curve" smooth="yes"/>
      <point x="190" y="106"/>
      <point x="172" y="152"/>
      <point x="172" y="248" type="curve" smooth="yes"/>
      <point x="172" y="342"/>
      <point x="198" y="392"/>
    </contour>
    <contour>
      <point x="149" y="633" type="line"/>
      <point x="218" y="548" type="line"/>
      <point x="387" y="685" type="line"/>
      <point x="319" y="770" type="line"/>
    </contour>
  </outline>
</glyph>
<glyph name="uni0570" format="2">
  <advance width="457"/>
  <unicode hex="0570"/>
  <note>
uni0570
</note>
  <outline>
    <contour>
      <point x="280" y="0" type="line"/>
      <point x="411" y="0" type="line"/>
      <point x="411" y="180" type="line" smooth="yes"/>
      <point x="411" y="302"/>
      <point x="373" y="358"/>
      <point x="280" y="358" type="curve" smooth="yes"/>
      <point x="229" y="358"/>
      <point x="194" y="336"/>
      <point x="172" y="298" type="curve"/>
      <point x="169" y="298" type="line"/>
      <point x="170" y="525"/>
      <point x="204" y="645"/>
      <point x="273" y="645" type="curve" smooth="yes"/>
      <point x="294" y="645"/>
      <point x="326" y="635"/>
      <point x="357" y="598" type="curve"/>
      <point x="429" y="686" type="line"/>
      <point x="390" y="731"/>
      <point x="334" y="761"/>
      <point x="273" y="761" type="curve" smooth="yes"/>
      <point x="99" y="761"/>
      <point x="41" y="584"/>
      <point x="41" y="238" type="curve" smooth="yes"/>
      <point x="41" y="189" type="line"/>
      <point x="167" y="167" type="line"/>
      <point x="178" y="214"/>
      <point x="198" y="238"/>
      <point x="229" y="238" type="curve" smooth="yes"/>
      <point x="264" y="238"/>
      <point x="280" y="209"/>
      <point x="280" y="149" type="curve" smooth="yes"/>
    </contour>
  </outline>
</glyph>
<glyph name="uni0571" format="2">
  <advance width="555"/>
  <unicode hex="0571"/>
  <note>
uni0571
</note>
  <outline>
    <contour>
      <point x="183" y="760" type="curve"/>
      <point x="61" y="760" type="line"/>
      <point x="61" y="640"/>
      <point x="82" y="605"/>
      <point x="194" y="588" type="curve" smooth="yes"/>
      <point x="295" y="573"/>
      <point x="307" y="565"/>
      <point x="307" y="548" type="curve" smooth="yes"/>
      <point x="307" y="532"/>
      <point x="296" y="510"/>
      <point x="202" y="428" type="curve" smooth="yes"/>
      <point x="79" y="320"/>
      <point x="32" y="259"/>
      <point x="32" y="167" type="curve" smooth="yes"/>
      <point x="32" y="54"/>
      <point x="99" y="-10"/>
      <point x="187" y="-10" type="curve" smooth="yes"/>
      <point x="264" y="-10"/>
      <point x="313" y="14"/>
      <point x="345" y="43" type="curve"/>
      <point x="350" y="43" type="line"/>
      <point x="352" y="142" type="line"/>
      <point x="307" y="109"/>
      <point x="266" y="100"/>
      <point x="236" y="100" type="curve" smooth="yes"/>
      <point x="192" y="100"/>
      <point x="163" y="121"/>
      <point x="163" y="172" type="curve" smooth="yes"/>
      <point x="163" y="224"/>
      <point x="193" y="268"/>
      <point x="283" y="345" type="curve" smooth="yes"/>
      <point x="423" y="466"/>
      <point x="456" y="519"/>
      <point x="456" y="584" type="curve" smooth="yes"/>
      <point x="456" y="649"/>
      <point x="412" y="678"/>
      <point x="291" y="693" type="curve" smooth="yes"/>
      <point x="201" y="704"/>
      <point x="183" y="715"/>
    </contour>
    <contour>
      <point x="254" y="451" type="line"/>
      <point x="360" y="0" type="line"/>
      <point x="485" y="34" type="line"/>
      <point x="380" y="485" type="line"/>
    </contour>
    <contour>
      <point x="360" y="0" type="line"/>
      <point x="541" y="0" type="line"/>
      <point x="541" y="110" type="line"/>
      <point x="411" y="110" type="line"/>
    </contour>
  </outline>
</glyph>
<glyph name="uni0573" format="2">
  <advance width="499"/>
  <unicode hex="0573"/>
  <note>
uni0573
</note>
  <outline>
    <contour>
      <point x="456" y="203" type="line" smooth="yes"/>
      <point x="456" y="414"/>
      <point x="295" y="488"/>
      <point x="12" y="508" type="curve"/>
      <point x="12" y="398" type="line"/>
      <point x="208" y="379"/>
      <point x="325" y="340"/>
      <point x="325" y="212" type="curve" smooth="yes"/>
      <point x="325" y="155"/>
      <point x="302" y="110"/>
      <point x="247" y="110" type="curve" smooth="yes"/>
      <point x="203" y="110"/>
      <point x="184" y="145"/>
      <point x="184" y="226" type="curve" smooth="yes"/>
      <point x="184" y="533"/>
      <point x="237" y="645"/>
      <point x="314" y="645" type="curve" smooth="yes"/>
      <point x="335" y="645"/>
      <point x="367" y="635"/>
      <point x="398" y="598" type="curve"/>
      <point x="471" y="686" type="line"/>
      <point x="431" y="731"/>
      <point x="375" y="761"/>
      <point x="314" y="761" type="curve" smooth="yes"/>
      <point x="152" y="761"/>
      <point x="53" y="602"/>
      <point x="53" y="226" type="curve" smooth="yes"/>
      <point x="53" y="60"/>
      <point x="101" y="-10"/>
      <point x="211" y="-10" type="curve" smooth="yes"/>
      <point x="267" y="-10"/>
      <point x="309" y="15"/>
      <point x="336" y="56" type="curve"/>
      <point x="339" y="56" type="line"/>
      <point x="353" y="0" type="line"/>
      <point x="456" y="0" type="line"/>
    </contour>
  </outline>
</glyph>
<glyph name="uni0574" format="2">
  <advance width="500"/>
  <unicode hex="0574"/>
  <note>
uni0574
</note>
  <outline>
    <contour>
      <point x="438" y="413" type="line" smooth="yes"/>
      <point x="438" y="473"/>
      <point x="427" y="506"/>
      <point x="403" y="536" type="curve" smooth="yes"/>
      <point x="375" y="572"/>
      <point x="365" y="590"/>
      <point x="365" y="613" type="curve" smooth="yes"/>
      <point x="365" y="636"/>
      <point x="373" y="651"/>
      <point x="394" y="651" type="curve" smooth="yes"/>
      <point x="415" y="651"/>
      <point x="424" y="638"/>
      <point x="424" y="609" type="curve"/>
      <point x="543" y="609" type="line"/>
      <point x="543" y="708"/>
      <point x="494" y="761"/>
      <point x="387" y="761" type="curve" smooth="yes"/>
      <point x="307" y="761"/>
      <point x="234" y="721"/>
      <point x="234" y="610" type="curve" smooth="yes"/>
      <point x="234" y="570"/>
      <point x="246" y="541"/>
      <point x="276" y="499" type="curve" smooth="yes"/>
      <point x="298" y="469"/>
      <point x="307" y="441"/>
      <point x="307" y="405" type="curve" smooth="yes"/>
      <point x="307" y="277" type="line" smooth="yes"/>
      <point x="307" y="166"/>
      <point x="283" y="110"/>
      <point x="236" y="110" type="curve" smooth="yes"/>
      <point x="201" y="110"/>
      <point x="185" y="139"/>
      <point x="185" y="200" type="curve" smooth="yes"/>
      <point x="185" y="502" type="line"/>
      <point x="54" y="502" type="line"/>
      <point x="54" y="168" type="line" smooth="yes"/>
      <point x="54" y="47"/>
      <point x="107" y="-10"/>
      <point x="200" y="-10" type="curve" smooth="yes"/>
      <point x="255" y="-10"/>
      <point x="297" y="14"/>
      <point x="318" y="56" type="curve"/>
      <point x="321" y="56" type="line"/>
      <point x="335" y="0" type="line"/>
      <point x="438" y="0" type="line"/>
    </contour>
  </outline>
</glyph>
<glyph name="uni0575" format="2">
  <advance width="245"/>
  <unicode hex="0575"/>
  <note>
uni0575
</note>
  <outline>
    <contour>
      <point x="55" y="188" type="line"/>
      <point x="186" y="188" type="line"/>
      <point x="186" y="502" type="line"/>
      <point x="55" y="502" type="line"/>
    </contour>
    <contour>
      <point x="55" y="188" type="line"/>
      <point x="55" y="121"/>
      <point x="59" y="89"/>
      <point x="70" y="45" type="curve" smooth="yes"/>
      <point x="81" y="3"/>
      <point x="88" y="-29"/>
      <point x="88" y="-62" type="curve" smooth="yes"/>
      <point x="88" y="-103"/>
      <point x="68" y="-128"/>
      <point x="35" y="-128" type="curve" smooth="yes"/>
      <point x="17" y="-128" type="line"/>
      <point x="17" y="-238" type="line"/>
      <point x="60" y="-238" type="line" smooth="yes"/>
      <point x="165" y="-238"/>
      <point x="219" y="-175"/>
      <point x="219" y="-84" type="curve" smooth="yes"/>
      <point x="219" y="-29"/>
      <point x="212" y="7"/>
      <point x="201" y="48" type="curve" smooth="yes"/>
      <point x="189" y="91"/>
      <point x="186" y="119"/>
      <point x="186" y="188" type="curve"/>
    </contour>
  </outline>
</glyph>
<glyph name="uni0576" format="2">
  <advance width="500"/>
  <unicode hex="0576"/>
  <note>
uni0576
</note>
  <outline>
    <contour>
      <point x="125" y="510" type="line"/>
      <point x="74" y="408"/>
      <point x="45" y="310"/>
      <point x="45" y="209" type="curve" smooth="yes"/>
      <point x="45" y="69"/>
      <point x="100" y="-10"/>
      <point x="195" y="-10" type="curve"/>
      <point x="258" y="-10"/>
      <point x="296" y="14"/>
      <point x="325" y="56" type="curve"/>
      <point x="328" y="56" type="line"/>
      <point x="342" y="0" type="line"/>
      <point x="445" y="0" type="line"/>
      <point x="445" y="502" type="line"/>
      <point x="315" y="502" type="line"/>
      <point x="315" y="277" type="line" smooth="yes"/>
      <point x="315" y="151"/>
      <point x="290" y="110"/>
      <point x="240" y="110" type="curve" smooth="yes"/>
      <point x="198" y="110"/>
      <point x="176" y="153"/>
      <point x="176" y="214" type="curve" smooth="yes"/>
      <point x="176" y="336"/>
      <point x="210" y="452"/>
      <point x="243" y="541" type="curve"/>
      <point x="243" y="555" type="line"/>
    </contour>
    <contour>
      <point x="243" y="555" type="line"/>
      <point x="213" y="578" type="line" smooth="yes"/>
      <point x="183" y="596"/>
      <point x="176" y="611"/>
      <point x="176" y="631" type="curve" smooth="yes"/>
      <point x="176" y="648"/>
      <point x="181" y="671"/>
      <point x="191" y="696" type="curve" smooth="yes"/>
      <point x="207" y="737" type="line"/>
      <point x="90" y="766" type="line"/>
      <point x="66" y="697" type="line" smooth="yes"/>
      <point x="58" y="673"/>
      <point x="51" y="648"/>
      <point x="51" y="621" type="curve" smooth="yes"/>
      <point x="51" y="578"/>
      <point x="64" y="557"/>
      <point x="94" y="534" type="curve" smooth="yes"/>
      <point x="125" y="510" type="line"/>
    </contour>
  </outline>
</glyph>
<glyph name="uni0577" format="2">
  <advance width="387"/>
  <unicode hex="0577"/>
  <note>
uni0577
</note>
  <outline>
    <contour>
      <point x="357" y="-238" type="line"/>
      <point x="357" y="-128" type="line"/>
      <point x="184" y="-128" type="line" smooth="yes"/>
      <point x="163" y="-128"/>
      <point x="155" y="-118"/>
      <point x="155" y="-104" type="curve" smooth="yes"/>
      <point x="155" y="-93"/>
      <point x="164" y="-78"/>
      <point x="174" y="-62" type="curve" smooth="yes"/>
      <point x="237" y="37" type="line" smooth="yes"/>
      <point x="317" y="163"/>
      <point x="349" y="234"/>
      <point x="349" y="321" type="curve" smooth="yes"/>
      <point x="349" y="437"/>
      <point x="276" y="512"/>
      <point x="168" y="512" type="curve" smooth="yes"/>
      <point x="103" y="512"/>
      <point x="49" y="497"/>
      <point x="-2" y="470" type="curve"/>
      <point x="41" y="373" type="line"/>
      <point x="81" y="395"/>
      <point x="111" y="402"/>
      <point x="146" y="402" type="curve" smooth="yes"/>
      <point x="189" y="402"/>
      <point x="218" y="372"/>
      <point x="218" y="313" type="curve" smooth="yes"/>
      <point x="218" y="253"/>
      <point x="203" y="219"/>
      <point x="135" y="105" type="curve" smooth="yes"/>
      <point x="63" y="-16" type="line" smooth="yes"/>
      <point x="20" y="-89"/>
      <point x="10" y="-119"/>
      <point x="10" y="-155" type="curve" smooth="yes"/>
      <point x="10" y="-209"/>
      <point x="46" y="-238"/>
      <point x="100" y="-238" type="curve" smooth="yes"/>
    </contour>
  </outline>
</glyph>
<glyph name="uni0579" format="2">
  <advance width="331"/>
  <unicode hex="0579"/>
  <note>
uni0579
</note>
  <outline>
    <contour>
      <point x="-16" y="-175" type="curve" smooth="yes"/>
      <point x="-16" y="-209"/>
      <point x="3" y="-238"/>
      <point x="73" y="-238" type="curve" smooth="yes"/>
      <point x="309" y="-238" type="line"/>
      <point x="309" y="-128" type="line"/>
      <point x="152" y="-128" type="line" smooth="yes"/>
      <point x="131" y="-128"/>
      <point x="123" y="-118"/>
      <point x="123" y="-104" type="curve" smooth="yes"/>
      <point x="123" y="-91"/>
      <point x="129" y="-73"/>
      <point x="135" y="-56" type="curve" smooth="yes"/>
      <point x="265" y="306" type="line"/>
      <point x="152" y="350" type="line"/>
      <point x="26" y="-9" type="line" smooth="yes"/>
      <point x="-8" y="-107"/>
      <point x="-16" y="-136"/>
    </contour>
    <contour>
      <point x="264" y="306" type="line"/>
      <point x="233" y="330" type="line" smooth="yes"/>
      <point x="205" y="351"/>
      <point x="197" y="362"/>
      <point x="197" y="382" type="curve" smooth="yes"/>
      <point x="197" y="401"/>
      <point x="206" y="434"/>
      <point x="232" y="502" type="curve"/>
      <point x="99" y="502" type="line"/>
      <point x="72" y="435"/>
      <point x="64" y="402"/>
      <point x="64" y="372" type="curve" smooth="yes"/>
      <point x="64" y="330"/>
      <point x="79" y="310"/>
      <point x="109" y="287" type="curve" smooth="yes"/>
      <point x="141" y="262" type="line"/>
    </contour>
  </outline>
</glyph>
<glyph name="uni057B" format="2">
  <advance width="418"/>
  <unicode hex="057B"/>
  <note>
uni057B
</note>
  <outline>
    <contour>
      <point x="214" y="-128" type="line" smooth="yes"/>
      <point x="193" y="-128"/>
      <point x="184" y="-118"/>
      <point x="184" y="-104" type="curve" smooth="yes"/>
      <point x="184" y="-93"/>
      <point x="193" y="-78"/>
      <point x="203" y="-62" type="curve" smooth="yes"/>
      <point x="267" y="37" type="line" smooth="yes"/>
      <point x="350" y="166"/>
      <point x="388" y="237"/>
      <point x="388" y="321" type="curve" smooth="yes"/>
      <point x="388" y="442"/>
      <point x="324" y="512"/>
      <point x="206" y="512" type="curve" smooth="yes"/>
      <point x="83" y="512"/>
      <point x="24" y="437"/>
      <point x="24" y="321" type="curve" smooth="yes"/>
      <point x="24" y="248"/>
      <point x="44" y="194"/>
      <point x="100" y="137" type="curve" smooth="yes"/>
      <point x="137" y="99"/>
      <point x="161" y="59"/>
      <point x="180" y="-42" type="curve"/>
      <point x="254" y="61" type="line"/>
      <point x="243" y="124"/>
      <point x="224" y="167"/>
      <point x="191" y="206" type="curve" smooth="yes"/>
      <point x="159" y="243"/>
      <point x="155" y="285"/>
      <point x="155" y="321" type="curve" smooth="yes"/>
      <point x="155" y="377"/>
      <point x="175" y="402"/>
      <point x="206" y="402" type="curve" smooth="yes"/>
      <point x="236" y="402"/>
      <point x="257" y="379"/>
      <point x="257" y="321" type="curve" smooth="yes"/>
      <point x="257" y="263"/>
      <point x="235" y="223"/>
      <point x="168" y="110" type="curve" smooth="yes"/>
      <point x="97" y="-9" type="line" smooth="yes"/>
      <point x="54" y="-82"/>
      <point x="40" y="-116"/>
      <point x="40" y="-155" type="curve" smooth="yes"/>
      <point x="40" y="-209"/>
      <point x="75" y="-238"/>
      <point x="129" y="-238" type="curve" smooth="yes"/>
      <point x="380" y="-238" type="line"/>
      <point x="380" y="-128" type="line"/>
    </contour>
  </outline>
</glyph>
<glyph name="uni057C" format="2">
  <advance width="506"/>
  <unicode hex="057C"/>
  <note>
uni057C
</note>
  <outline>
    <contour>
      <point x="407" y="110" type="line"/>
      <point x="436" y="174"/>
      <point x="453" y="236"/>
      <point x="453" y="314" type="curve" smooth="yes"/>
      <point x="453" y="437"/>
      <point x="391" y="512"/>
      <point x="292" y="512" type="curve" smooth="yes"/>
      <point x="237" y="512"/>
      <point x="196" y="488"/>
      <point x="175" y="446" type="curve"/>
      <point x="172" y="446" type="line"/>
      <point x="158" y="501" type="line"/>
      <point x="55" y="501" type="line"/>
      <point x="55" y="0" type="line"/>
      <point x="186" y="0" type="line"/>
      <point x="186" y="225" type="line" smooth="yes"/>
      <point x="186" y="336"/>
      <point x="211" y="392"/>
      <point x="258" y="392" type="curve" smooth="yes"/>
      <point x="299" y="392"/>
      <point x="322" y="355"/>
      <point x="322" y="281" type="curve" smooth="yes"/>
      <point x="322" y="224"/>
      <point x="308" y="152"/>
      <point x="282" y="84" type="curve"/>
      <point x="282" y="0" type="line"/>
      <point x="498" y="0" type="line"/>
      <point x="498" y="110" type="line"/>
    </contour>
  </outline>
</glyph>
<glyph name="uni057D" format="2">
  <advance width="492"/>
  <unicode hex="057D"/>
  <note>
uni057D
</note>
  <outline>
    <contour>
      <point x="437" y="502" type="line"/>
      <point x="306" y="502" type="line"/>
      <point x="306" y="277" type="line" smooth="yes"/>
      <point x="306" y="166"/>
      <point x="282" y="110"/>
      <point x="235" y="110" type="curve" smooth="yes"/>
      <point x="200" y="110"/>
      <point x="184" y="139"/>
      <point x="184" y="200" type="curve" smooth="yes"/>
      <point x="184" y="502" type="line"/>
      <point x="53" y="502" type="line"/>
      <point x="53" y="168" type="line" smooth="yes"/>
      <point x="53" y="47"/>
      <point x="106" y="-10"/>
      <point x="199" y="-10" type="curve" smooth="yes"/>
      <point x="254" y="-10"/>
      <point x="296" y="14"/>
      <point x="317" y="56" type="curve"/>
      <point x="320" y="56" type="line"/>
      <point x="334" y="0" type="line"/>
      <point x="437" y="0" type="line"/>
    </contour>
  </outline>
</glyph>
<glyph name="uni057E" format="2">
  <advance width="506"/>
  <unicode hex="057E"/>
  <note>
uni057E
</note>
  <outline>
    <contour>
      <point x="438" y="-128" type="line"/>
      <point x="438" y="760" type="line"/>
      <point x="307" y="760" type="line"/>
      <point x="307" y="277" type="line" smooth="yes"/>
      <point x="307" y="166"/>
      <point x="283" y="110"/>
      <point x="236" y="110" type="curve" smooth="yes"/>
      <point x="201" y="110"/>
      <point x="185" y="139"/>
      <point x="185" y="200" type="curve" smooth="yes"/>
      <point x="185" y="502" type="line"/>
      <point x="54" y="502" type="line"/>
      <point x="54" y="168" type="line" smooth="yes"/>
      <point x="54" y="47"/>
      <point x="107" y="-10"/>
      <point x="190" y="-10" type="curve" smooth="yes"/>
      <point x="251" y="-10"/>
      <point x="287" y="14"/>
      <point x="308" y="56" type="curve"/>
      <point x="311" y="56" type="line"/>
      <point x="309" y="33"/>
      <point x="307" y="8"/>
      <point x="307" y="-15" type="curve" smooth="yes"/>
      <point x="307" y="-238" type="line"/>
      <point x="536" y="-238" type="line"/>
      <point x="536" y="-128" type="line"/>
    </contour>
  </outline>
</glyph>
<glyph name="uni057F" format="2">
  <advance width="745"/>
  <unicode hex="057F"/>
  <note>
uni057F
</note>
  <outline>
    <contour>
      <point x="546" y="512" type="curve" smooth="yes"/>
      <point x="490" y="512"/>
      <point x="449" y="488"/>
      <point x="428" y="446" type="curve"/>
      <point x="425" y="446" type="line"/>
      <point x="411" y="502" type="line"/>
      <point x="307" y="502" type="line"/>
      <point x="307" y="277" type="line" smooth="yes"/>
      <point x="307" y="166"/>
      <point x="283" y="110"/>
      <point x="236" y="110" type="curve" smooth="yes"/>
      <point x="201" y="110"/>
      <point x="185" y="139"/>
      <point x="185" y="200" type="curve" smooth="yes"/>
      <point x="185" y="502" type="line"/>
      <point x="54" y="502" type="line"/>
      <point x="54" y="168" type="line" smooth="yes"/>
      <point x="54" y="47"/>
      <point x="107" y="-10"/>
      <point x="200" y="-10" type="curve" smooth="yes"/>
      <point x="255" y="-10"/>
      <point x="297" y="14"/>
      <point x="318" y="56" type="curve"/>
      <point x="321" y="56" type="line"/>
      <point x="335" y="0" type="line"/>
      <point x="439" y="0" type="line"/>
      <point x="439" y="225" type="line" smooth="yes"/>
      <point x="439" y="336"/>
      <point x="463" y="392"/>
      <point x="510" y="392" type="curve" smooth="yes"/>
      <point x="545" y="392"/>
      <point x="561" y="363"/>
      <point x="561" y="302" type="curve" smooth="yes"/>
      <point x="561" y="0" type="line"/>
      <point x="692" y="0" type="line"/>
      <point x="692" y="334" type="line" smooth="yes"/>
      <point x="692" y="455"/>
      <point x="639" y="512"/>
    </contour>
  </outline>
</glyph>
<glyph name="uni0580" format="2">
  <advance width="492"/>
  <unicode hex="0580"/>
  <note>
uni0580
</note>
  <outline>
    <contour>
      <point x="55" y="-238" type="line"/>
      <point x="186" y="-238" type="line"/>
      <point x="186" y="225" type="line" smooth="yes"/>
      <point x="186" y="336"/>
      <point x="210" y="392"/>
      <point x="257" y="392" type="curve" smooth="yes"/>
      <point x="292" y="392"/>
      <point x="308" y="363"/>
      <point x="308" y="302" type="curve" smooth="yes"/>
      <point x="308" y="0" type="line"/>
      <point x="439" y="0" type="line"/>
      <point x="439" y="334" type="line" smooth="yes"/>
      <point x="439" y="455"/>
      <point x="386" y="512"/>
      <point x="293" y="512" type="curve" smooth="yes"/>
      <point x="237" y="512"/>
      <point x="196" y="488"/>
      <point x="175" y="446" type="curve"/>
      <point x="172" y="446" type="line"/>
      <point x="158" y="501" type="line"/>
      <point x="55" y="501" type="line"/>
    </contour>
  </outline>
</glyph>
<glyph name="uni0581" format="2">
  <advance width="494"/>
  <unicode hex="0581"/>
  <note>
uni0581
</note>
  <outline>
    <contour>
      <point x="206" y="-248" type="curve" smooth="yes"/>
      <point x="369" y="-248"/>
      <point x="439" y="-153"/>
      <point x="439" y="22" type="curve" smooth="yes"/>
      <point x="439" y="501" type="line"/>
      <point x="326" y="501" type="line"/>
      <point x="316" y="427" type="line"/>
      <point x="308" y="427" type="line"/>
      <point x="282" y="488"/>
      <point x="249" y="511"/>
      <point x="194" y="511" type="curve" smooth="yes"/>
      <point x="93" y="511"/>
      <point x="35" y="407"/>
      <point x="35" y="247" type="curve" smooth="yes"/>
      <point x="35" y="86"/>
      <point x="93" y="-10"/>
      <point x="189" y="-10" type="curve" smooth="yes"/>
      <point x="243" y="-10"/>
      <point x="281" y="18"/>
      <point x="308" y="78" type="curve"/>
      <point x="313" y="78" type="line"/>
      <point x="311" y="52"/>
      <point x="308" y="17"/>
      <point x="308" y="-3" type="curve" smooth="yes"/>
      <point x="308" y="-27" type="line" smooth="yes"/>
      <point x="308" y="-107"/>
      <point x="268" y="-138"/>
      <point x="202" y="-138" type="curve" smooth="yes"/>
      <point x="155" y="-138"/>
      <point x="110" y="-126"/>
      <point x="57" y="-97" type="curve"/>
      <point x="57" y="-209" type="line"/>
      <point x="100" y="-235"/>
      <point x="147" y="-248"/>
    </contour>
    <contour>
      <point x="235" y="100" type="curve" smooth="yes"/>
      <point x="193" y="100"/>
      <point x="167" y="142"/>
      <point x="167" y="246" type="curve" smooth="yes"/>
      <point x="167" y="350"/>
      <point x="192" y="401"/>
      <point x="235" y="401" type="curve" smooth="yes"/>
      <point x="284" y="401"/>
      <point x="308" y="363"/>
      <point x="308" y="270" type="curve" smooth="yes"/>
      <point x="308" y="236" type="line" smooth="yes"/>
      <point x="308" y="142"/>
      <point x="283" y="100"/>
    </contour>
  </outline>
</glyph>
<glyph name="uni0582" format="2">
  <advance width="293"/>
  <unicode hex="0582"/>
  <note>
uni0582
</note>
  <outline>
    <contour>
      <point x="55" y="0" type="line"/>
      <point x="289" y="0" type="line"/>
      <point x="289" y="110" type="line"/>
      <point x="192" y="110" type="line"/>
      <point x="192" y="502" type="line"/>
      <point x="55" y="502" type="line"/>
    </contour>
  </outline>
</glyph>
<glyph name="uni0583" format="2">
  <advance width="744"/>
  <unicode hex="0583"/>
  <note>
uni0583
</note>
  <outline>
    <contour>
      <point x="556" y="512" type="curve" smooth="yes"/>
      <point x="497" y="512"/>
      <point x="463" y="492"/>
      <point x="444" y="453" type="curve"/>
      <point x="440" y="453" type="line"/>
      <point x="442" y="479"/>
      <point x="444" y="505"/>
      <point x="444" y="530" type="curve" smooth="yes"/>
      <point x="444" y="760" type="line"/>
      <point x="307" y="760" type="line"/>
      <point x="307" y="277" type="line" smooth="yes"/>
      <point x="307" y="166"/>
      <point x="283" y="110"/>
      <point x="236" y="110" type="curve" smooth="yes"/>
      <point x="201" y="110"/>
      <point x="185" y="139"/>
      <point x="185" y="200" type="curve" smooth="yes"/>
      <point x="185" y="502" type="line"/>
      <point x="54" y="502" type="line"/>
      <point x="54" y="168" type="line" smooth="yes"/>
      <point x="54" y="47"/>
      <point x="107" y="-10"/>
      <point x="200" y="-10" type="curve" smooth="yes"/>
      <point x="248" y="-10"/>
      <point x="287" y="14"/>
      <point x="308" y="56" type="curve"/>
      <point x="311" y="56" type="line"/>
      <point x="310" y="33"/>
      <point x="307" y="9"/>
      <point x="307" y="-15" type="curve"/>
      <point x="307" y="-238" type="line"/>
      <point x="438" y="-238" type="line"/>
      <point x="438" y="225" type="line" smooth="yes"/>
      <point x="438" y="336"/>
      <point x="462" y="392"/>
      <point x="509" y="392" type="curve" smooth="yes"/>
      <point x="544" y="392"/>
      <point x="560" y="363"/>
      <point x="560" y="302" type="curve" smooth="yes"/>
      <point x="560" y="0" type="line"/>
      <point x="691" y="0" type="line"/>
      <point x="691" y="334" type="line" smooth="yes"/>
      <point x="691" y="455"/>
      <point x="638" y="512"/>
    </contour>
  </outline>
</glyph>
<glyph name="uni0584" format="2">
  <advance width="495"/>
  <unicode hex="0584"/>
  <note>
uni0584
</note>
  <outline>
    <contour>
      <point x="56" y="-238" type="line"/>
      <point x="186" y="-238" type="line"/>
      <point x="186" y="-166" type="line"/>
      <point x="449" y="-166" type="line"/>
      <point x="449" y="-56" type="line"/>
      <point x="186" y="-56" type="line"/>
      <point x="186" y="-22" type="line" smooth="yes"/>
      <point x="186" y="-3"/>
      <point x="185" y="33"/>
      <point x="182" y="78" type="curve"/>
      <point x="186" y="78" type="line"/>
      <point x="213" y="18"/>
      <point x="251" y="-10"/>
      <point x="305" y="-10" type="curve" smooth="yes"/>
      <point x="401" y="-10"/>
      <point x="459" y="86"/>
      <point x="459" y="247" type="curve" smooth="yes"/>
      <point x="459" y="407"/>
      <point x="401" y="511"/>
      <point x="300" y="511" type="curve" smooth="yes"/>
      <point x="245" y="511"/>
      <point x="212" y="488"/>
      <point x="186" y="427" type="curve"/>
      <point x="179" y="427" type="line"/>
      <point x="168" y="501" type="line"/>
      <point x="56" y="501" type="line"/>
      <point x="56" y="-56" type="line"/>
      <point x="2" y="-56" type="line"/>
      <point x="2" y="-166" type="line"/>
      <point x="56" y="-166" type="line"/>
    </contour>
    <contour>
      <point x="260" y="100" type="curve" smooth="yes"/>
      <point x="211" y="100"/>
      <point x="187" y="142"/>
      <point x="187" y="236" type="curve" smooth="yes"/>
      <point x="187" y="270" type="line" smooth="yes"/>
      <point x="187" y="363"/>
      <point x="211" y="401"/>
      <point x="260" y="401" type="curve" smooth="yes"/>
      <point x="303" y="401"/>
      <point x="328" y="350"/>
      <point x="328" y="246" type="curve" smooth="yes"/>
      <point x="328" y="142"/>
      <point x="302" y="100"/>
    </contour>
  </outline>
</glyph>
<glyph name="uni0585" format="2">
  <advance width="474"/>
  <unicode hex="0585"/>
  <note>
uni0585
</note>
  <anchor x="237" y="492" name="top"/>
  <outline>
    <contour>
      <point x="240" y="-11" type="curve" smooth="yes"/>
      <point x="361" y="-11"/>
      <point x="441" y="85"/>
      <point x="441" y="250" type="curve" smooth="yes"/>
      <point x="441" y="414"/>
      <point x="358" y="512"/>
      <point x="237" y="512" type="curve" smooth="yes"/>
      <point x="117" y="512"/>
      <point x="33" y="418"/>
      <point x="33" y="250" type="curve" smooth="yes"/>
      <point x="33" y="85"/>
      <point x="117" y="-11"/>
    </contour>
    <contour>
      <point x="238" y="105" type="curve" smooth="yes"/>
      <point x="194" y="105"/>
      <point x="170" y="154"/>
      <point x="170" y="252" type="curve" smooth="yes"/>
      <point x="170" y="350"/>
      <point x="193" y="396"/>
      <point x="237" y="396" type="curve" smooth="yes"/>
      <point x="283" y="396"/>
      <point x="304" y="344"/>
      <point x="304" y="252" type="curve" smooth="yes"/>
      <point x="304" y="153"/>
      <point x="280" y="105"/>
    </contour>
  </outline>
</glyph>
<glyph name="uni0586" format="2">
  <advance width="631"/>
  <unicode hex="0586"/>
  <note>
uni0586
</note>
  <outline>
    <contour>
      <point x="363" y="415" type="curve"/>
      <point x="363" y="714" type="line"/>
      <point x="294" y="714" type="line" smooth="yes"/>
      <point x="119" y="714"/>
      <point x="28" y="637"/>
      <point x="28" y="514" type="curve" smooth="yes"/>
      <point x="28" y="402"/>
      <point x="95" y="339"/>
      <point x="237" y="314" type="curve"/>
      <point x="237" y="101" type="line"/>
      <point x="187" y="106"/>
      <point x="107" y="132"/>
      <point x="23" y="175" type="curve"/>
      <point x="23" y="53" type="line"/>
      <point x="82" y="24"/>
      <point x="165" y="0"/>
      <point x="237" y="-9" type="curve"/>
      <point x="237" y="-240" type="line"/>
      <point x="363" y="-240" type="line"/>
      <point x="363" y="-9" type="line"/>
      <point x="510" y="2"/>
      <point x="600" y="77"/>
      <point x="600" y="204" type="curve" smooth="yes"/>
      <point x="600" y="330"/>
      <point x="523" y="387"/>
    </contour>
    <contour>
      <point x="158" y="519" type="curve" smooth="yes"/>
      <point x="158" y="571"/>
      <point x="190" y="602"/>
      <point x="237" y="604" type="curve"/>
      <point x="237" y="424" type="line"/>
      <point x="184" y="438"/>
      <point x="158" y="471"/>
    </contour>
    <contour>
      <point x="363" y="101" type="curve"/>
      <point x="363" y="305" type="line"/>
      <point x="426" y="290"/>
      <point x="469" y="261"/>
      <point x="469" y="197" type="curve" smooth="yes"/>
      <point x="469" y="137"/>
      <point x="440" y="105"/>
    </contour>
  </outline>
</glyph>
<glyph name="uni0587" format="2">
  <advance width="539"/>
  <unicode hex="0587"/>
  <note>
uni0587
</note>
  <outline>
    <contour>
      <point x="200" y="-10" type="curve" smooth="yes"/>
      <point x="255" y="-10"/>
      <point x="297" y="14"/>
      <point x="318" y="56" type="curve"/>
      <point x="321" y="56" type="line"/>
      <point x="335" y="0" type="line"/>
      <point x="536" y="0" type="line"/>
      <point x="536" y="110" type="line"/>
      <point x="438" y="110" type="line"/>
      <point x="438" y="502" type="line"/>
      <point x="307" y="502" type="line"/>
      <point x="307" y="277" type="line" smooth="yes"/>
      <point x="307" y="166"/>
      <point x="283" y="110"/>
      <point x="236" y="110" type="curve" smooth="yes"/>
      <point x="201" y="110"/>
      <point x="185" y="139"/>
      <point x="185" y="200" type="curve" smooth="yes"/>
      <point x="185" y="760" type="line"/>
      <point x="54" y="760" type="line"/>
      <point x="54" y="168" type="line" smooth="yes"/>
      <point x="54" y="47"/>
      <point x="107" y="-10"/>
    </contour>
  </outline>
</glyph>
<glyph name="uni0588" format="2">
  <advance width="325"/>
  <unicode hex="0588"/>
  <note>
uni0575
</note>
  <outline>
    <contour>
      <point x="95" y="188" type="line"/>
      <point x="226" y="188" type="line"/>
      <point x="226" y="502" type="line"/>
      <point x="95" y="502" type="line"/>
    </contour>
    <contour>
      <point x="95" y="188" type="line"/>
      <point x="95" y="121"/>
      <point x="99" y="89"/>
      <point x="110" y="45" type="curve" smooth="yes"/>
      <point x="121" y="3"/>
      <point x="128" y="-29"/>
      <point x="128" y="-62" type="curve" smooth="yes"/>
      <point x="128" y="-103"/>
      <point x="108" y="-128"/>
      <point x="75" y="-128" type="curve" smooth="yes"/>
      <point x="57" y="-128" type="line"/>
      <point x="57" y="-238" type="line"/>
      <point x="100" y="-238" type="line" smooth="yes"/>
      <point x="205" y="-238"/>
      <point x="259" y="-175"/>
      <point x="259" y="-84" type="curve" smooth="yes"/>
      <point x="259" y="-29"/>
      <point x="251" y="7"/>
      <point x="241" y="48" type="curve" smooth="yes"/>
      <point x="230" y="91"/>
      <point x="226" y="119"/>
      <point x="226" y="188" type="curve"/>
    </contour>
    <contour>
      <point x="5" y="177" type="line"/>
      <point x="5" y="67" type="line"/>
      <point x="316" y="67" type="line"/>
      <point x="316" y="177" type="line"/>
    </contour>
  </outline>
</glyph>
<glyph name="uni0589" format="2">
  <advance width="257"/>
  <unicode hex="0589"/>
  <note>
uni0589
</note>
  <outline>
    <contour>
      <point x="53" y="69" type="curve" smooth="yes"/>
      <point x="53" y="20"/>
      <point x="80" y="-10"/>
      <point x="130" y="-10" type="curve" smooth="yes"/>
      <point x="178" y="-10"/>
      <point x="205" y="19"/>
      <point x="205" y="69" type="curve" smooth="yes"/>
      <point x="205" y="120"/>
      <point x="180" y="150"/>
      <point x="130" y="150" type="curve" smooth="yes"/>
      <point x="79" y="150"/>
      <point x="53" y="120"/>
    </contour>
    <contour>
      <point x="53" y="435" type="curve" smooth="yes"/>
      <point x="53" y="385"/>
      <point x="81" y="355"/>
      <point x="130" y="355" type="curve" smooth="yes"/>
      <point x="178" y="355"/>
      <point x="205" y="385"/>
      <point x="205" y="435" type="curve" smooth="yes"/>
      <point x="205" y="487"/>
      <point x="179" y="516"/>
      <point x="131" y="516" type="curve" smooth="yes"/>
      <point x="79" y="516"/>
      <point x="53" y="486"/>
    </contour>
  </outline>
</glyph>
<glyph name="uni058A" format="2">
  <advance width="370"/>
  <unicode hex="058A"/>
  <note>
uni058A
</note>
  <outline>
    <contour>
      <point x="174" y="190" type="curve" smooth="yes"/>
      <point x="219" y="190"/>
      <point x="291" y="207"/>
      <point x="335" y="229" type="curve"/>
      <point x="335" y="320" type="line"/>
      <point x="285" y="307"/>
      <point x="242" y="300"/>
      <point x="205" y="300" type="curve" smooth="yes"/>
      <point x="166" y="300"/>
      <point x="151" y="312"/>
      <point x="151" y="359" type="curve"/>
      <point x="36" y="359" type="line"/>
      <point x="36" y="234"/>
      <point x="74" y="190"/>
    </contour>
  </outline>
</glyph>
<glyph name="uni058D" format="2">
  <advance width="816"/>
  <unicode hex="058D"/>
  <outline>
    <contour>
      <point x="408" y="-10" type="curve" smooth="yes"/>
      <point x="460" y="-10"/>
      <point x="507" y="9"/>
      <point x="544" y="41" type="curve"/>
      <point x="650" y="50"/>
      <point x="726" y="128"/>
      <point x="730" y="227" type="curve"/>
      <point x="763" y="264"/>
      <point x="781" y="309"/>
      <point x="781" y="357" type="curve" smooth="yes"/>
      <point x="781" y="407"/>
      <point x="761" y="453"/>
      <point x="729" y="488" type="curve"/>
      <point x="725" y="589"/>
      <point x="646" y="665"/>
      <point x="544" y="672" type="curve"/>
      <point x="509" y="705"/>
      <point x="459" y="724"/>
      <point x="408" y="724" type="curve" smooth="yes"/>
      <point x="357" y="724"/>
      <point x="309" y="705"/>
      <point x="273" y="673" type="curve"/>
      <point x="166" y="664"/>
      <point x="90" y="586"/>
      <point x="86" y="487" type="curve"/>
      <point x="53" y="449"/>
      <point x="35" y="404"/>
      <point x="35" y="357" type="curve" smooth="yes"/>
      <point x="35" y="307"/>
      <point x="55" y="261"/>
      <point x="87" y="226" type="curve"/>
      <point x="91" y="127"/>
      <point x="168" y="49"/>
      <point x="271" y="42" type="curve"/>
      <point x="308" y="9"/>
      <point x="358" y="-10"/>
    </contour>
    <contour>
      <point x="592" y="105" type="curve"/>
      <point x="604" y="130"/>
      <point x="611" y="157"/>
      <point x="611" y="186" type="curve" smooth="yes"/>
      <point x="611" y="272"/>
      <point x="553" y="344"/>
      <point x="474" y="371" type="curve"/>
      <point x="491" y="379"/>
      <point x="509" y="382"/>
      <point x="527" y="382" type="curve" smooth="yes"/>
      <point x="605" y="382"/>
      <point x="670" y="316"/>
      <point x="670" y="234" type="curve" smooth="yes"/>
      <point x="670" y="176"/>
      <point x="636" y="124"/>
    </contour>
    <contour>
      <point x="408" y="38" type="curve" smooth="yes"/>
      <point x="389" y="38"/>
      <point x="371" y="42"/>
      <point x="353" y="51" type="curve"/>
      <point x="437" y="77"/>
      <point x="489" y="153"/>
      <point x="489" y="235" type="curve" smooth="yes"/>
      <point x="489" y="264"/>
      <point x="483" y="292"/>
      <point x="470" y="318" type="curve"/>
      <point x="516" y="293"/>
      <point x="548" y="243"/>
      <point x="548" y="186" type="curve" smooth="yes"/>
      <point x="548" y="104"/>
      <point x="486" y="38"/>
    </contour>
    <contour>
      <point x="715" y="312" type="curve"/>
      <point x="682" y="388"/>
      <point x="608" y="432"/>
      <point x="530" y="432" type="curve" smooth="yes"/>
      <point x="503" y="432"/>
      <point x="476" y="427"/>
      <point x="450" y="416" type="curve"/>
      <point x="472" y="467"/>
      <point x="521" y="502"/>
      <point x="579" y="502" type="curve" smooth="yes"/>
      <point x="657" y="502"/>
      <point x="720" y="438"/>
      <point x="720" y="357" type="curve" smooth="yes"/>
      <point x="720" y="342"/>
      <point x="718" y="327"/>
    </contour>
    <contour>
      <point x="286" y="89" type="curve" smooth="yes"/>
      <point x="232" y="89"/>
      <point x="180" y="125"/>
      <point x="159" y="175" type="curve"/>
      <point x="183" y="166"/>
      <point x="210" y="160"/>
      <point x="238" y="160" type="curve" smooth="yes"/>
      <point x="320" y="160"/>
      <point x="391" y="209"/>
      <point x="423" y="279" type="curve"/>
      <point x="426" y="266"/>
      <point x="428" y="252"/>
      <point x="428" y="238" type="curve" smooth="yes"/>
      <point x="428" y="155"/>
      <point x="362" y="89"/>
    </contour>
    <contour>
      <point x="394" y="435" type="curve"/>
      <point x="390" y="448"/>
      <point x="388" y="462"/>
      <point x="388" y="476" type="curve" smooth="yes"/>
      <point x="388" y="559"/>
      <point x="455" y="625"/>
      <point x="531" y="625" type="curve" smooth="yes"/>
      <point x="584" y="625"/>
      <point x="637" y="589"/>
      <point x="659" y="539" type="curve"/>
      <point x="634" y="548"/>
      <point x="607" y="554"/>
      <point x="579" y="554" type="curve" smooth="yes"/>
      <point x="497" y="554"/>
      <point x="425" y="505"/>
    </contour>
    <contour>
      <point x="236" y="212" type="curve" smooth="yes"/>
      <point x="158" y="212"/>
      <point x="95" y="276"/>
      <point x="95" y="357" type="curve" smooth="yes"/>
      <point x="95" y="372"/>
      <point x="97" y="387"/>
      <point x="101" y="401" type="curve"/>
      <point x="134" y="326"/>
      <point x="207" y="282"/>
      <point x="285" y="282" type="curve" smooth="yes"/>
      <point x="312" y="282"/>
      <point x="339" y="287"/>
      <point x="365" y="298" type="curve"/>
      <point x="343" y="247"/>
      <point x="294" y="212"/>
    </contour>
    <contour>
      <point x="347" y="396" type="curve"/>
      <point x="300" y="421"/>
      <point x="269" y="471"/>
      <point x="269" y="528" type="curve" smooth="yes"/>
      <point x="269" y="610"/>
      <point x="330" y="676"/>
      <point x="408" y="676" type="curve" smooth="yes"/>
      <point x="428" y="676"/>
      <point x="447" y="672"/>
      <point x="464" y="663" type="curve"/>
      <point x="380" y="637"/>
      <point x="328" y="561"/>
      <point x="328" y="479" type="curve" smooth="yes"/>
      <point x="328" y="450"/>
      <point x="334" y="422"/>
    </contour>
    <contour>
      <point x="289" y="332" type="curve" smooth="yes"/>
      <point x="212" y="332"/>
      <point x="147" y="398"/>
      <point x="147" y="480" type="curve" smooth="yes"/>
      <point x="147" y="534"/>
      <point x="176" y="584"/>
      <point x="225" y="611" type="curve"/>
      <point x="213" y="586"/>
      <point x="206" y="558"/>
      <point x="206" y="528" type="curve" smooth="yes"/>
      <point x="206" y="442"/>
      <point x="265" y="370"/>
      <point x="343" y="343" type="curve"/>
      <point x="326" y="335"/>
      <point x="307" y="332"/>
    </contour>
  </outline>
</glyph>
<glyph name="uni058E" format="2">
  <advance width="816"/>
  <unicode hex="058E"/>
  <outline>
    <contour>
      <point x="408" y="-10" type="curve" smooth="yes"/>
      <point x="458" y="-10"/>
      <point x="509" y="9"/>
      <point x="545" y="42" type="curve"/>
      <point x="649" y="49"/>
      <point x="725" y="127"/>
      <point x="729" y="226" type="curve"/>
      <point x="761" y="261"/>
      <point x="781" y="307"/>
      <point x="781" y="357" type="curve" smooth="yes"/>
      <point x="781" y="404"/>
      <point x="763" y="449"/>
      <point x="730" y="487" type="curve"/>
      <point x="726" y="586"/>
      <point x="650" y="664"/>
      <point x="544" y="673" type="curve"/>
      <point x="507" y="705"/>
      <point x="459" y="724"/>
      <point x="408" y="724" type="curve" smooth="yes"/>
      <point x="357" y="724"/>
      <point x="308" y="705"/>
      <point x="272" y="672" type="curve"/>
      <point x="170" y="665"/>
      <point x="91" y="589"/>
      <point x="87" y="488" type="curve"/>
      <point x="55" y="453"/>
      <point x="35" y="407"/>
      <point x="35" y="357" type="curve" smooth="yes"/>
      <point x="35" y="309"/>
      <point x="53" y="264"/>
      <point x="86" y="227" type="curve"/>
      <point x="90" y="128"/>
      <point x="166" y="50"/>
      <point x="272" y="41" type="curve"/>
      <point x="309" y="9"/>
      <point x="356" y="-10"/>
    </contour>
    <contour>
      <point x="225" y="105" type="curve"/>
      <point x="182" y="124"/>
      <point x="147" y="176"/>
      <point x="147" y="234" type="curve" smooth="yes"/>
      <point x="147" y="316"/>
      <point x="212" y="382"/>
      <point x="289" y="382" type="curve" smooth="yes"/>
      <point x="307" y="382"/>
      <point x="326" y="379"/>
      <point x="343" y="371" type="curve"/>
      <point x="265" y="344"/>
      <point x="206" y="272"/>
      <point x="206" y="186" type="curve" smooth="yes"/>
      <point x="206" y="157"/>
      <point x="213" y="130"/>
    </contour>
    <contour>
      <point x="408" y="38" type="curve" smooth="yes"/>
      <point x="330" y="38"/>
      <point x="269" y="104"/>
      <point x="269" y="186" type="curve" smooth="yes"/>
      <point x="269" y="243"/>
      <point x="300" y="293"/>
      <point x="347" y="318" type="curve"/>
      <point x="334" y="292"/>
      <point x="328" y="264"/>
      <point x="328" y="235" type="curve" smooth="yes"/>
      <point x="328" y="153"/>
      <point x="380" y="77"/>
      <point x="464" y="51" type="curve"/>
      <point x="446" y="42"/>
      <point x="428" y="38"/>
    </contour>
    <contour>
      <point x="101" y="312" type="curve"/>
      <point x="97" y="327"/>
      <point x="96" y="342"/>
      <point x="96" y="357" type="curve" smooth="yes"/>
      <point x="96" y="438"/>
      <point x="159" y="502"/>
      <point x="237" y="502" type="curve" smooth="yes"/>
      <point x="295" y="502"/>
      <point x="344" y="467"/>
      <point x="366" y="416" type="curve"/>
      <point x="340" y="427"/>
      <point x="313" y="432"/>
      <point x="285" y="432" type="curve" smooth="yes"/>
      <point x="208" y="432"/>
      <point x="135" y="388"/>
    </contour>
    <contour>
      <point x="531" y="89" type="curve" smooth="yes"/>
      <point x="455" y="89"/>
      <point x="388" y="155"/>
      <point x="388" y="238" type="curve" smooth="yes"/>
      <point x="388" y="252"/>
      <point x="390" y="266"/>
      <point x="394" y="279" type="curve"/>
      <point x="425" y="209"/>
      <point x="497" y="160"/>
      <point x="579" y="160" type="curve" smooth="yes"/>
      <point x="607" y="160"/>
      <point x="634" y="166"/>
      <point x="658" y="175" type="curve"/>
      <point x="637" y="125"/>
      <point x="584" y="89"/>
    </contour>
    <contour>
      <point x="423" y="435" type="curve"/>
      <point x="391" y="505"/>
      <point x="320" y="554"/>
      <point x="237" y="554" type="curve" smooth="yes"/>
      <point x="210" y="554"/>
      <point x="183" y="548"/>
      <point x="158" y="539" type="curve"/>
      <point x="179" y="589"/>
      <point x="232" y="625"/>
      <point x="286" y="625" type="curve" smooth="yes"/>
      <point x="361" y="625"/>
      <point x="429" y="559"/>
      <point x="429" y="476" type="curve" smooth="yes"/>
      <point x="429" y="462"/>
      <point x="427" y="448"/>
    </contour>
    <contour>
      <point x="579" y="212" type="curve" smooth="yes"/>
      <point x="521" y="212"/>
      <point x="472" y="247"/>
      <point x="450" y="298" type="curve"/>
      <point x="476" y="287"/>
      <point x="503" y="282"/>
      <point x="530" y="282" type="curve" smooth="yes"/>
      <point x="608" y="282"/>
      <point x="681" y="326"/>
      <point x="715" y="401" type="curve"/>
      <point x="719" y="387"/>
      <point x="720" y="372"/>
      <point x="720" y="357" type="curve" smooth="yes"/>
      <point x="720" y="276"/>
      <point x="657" y="212"/>
    </contour>
    <contour>
      <point x="470" y="396" type="curve"/>
      <point x="483" y="422"/>
      <point x="489" y="450"/>
      <point x="489" y="479" type="curve" smooth="yes"/>
      <point x="489" y="561"/>
      <point x="437" y="637"/>
      <point x="353" y="663" type="curve"/>
      <point x="370" y="672"/>
      <point x="388" y="676"/>
      <point x="408" y="676" type="curve" smooth="yes"/>
      <point x="486" y="676"/>
      <point x="548" y="610"/>
      <point x="548" y="528" type="curve" smooth="yes"/>
      <point x="548" y="471"/>
      <point x="516" y="421"/>
    </contour>
    <contour>
      <point x="527" y="332" type="curve" smooth="yes"/>
      <point x="509" y="332"/>
      <point x="491" y="335"/>
      <point x="474" y="343" type="curve"/>
      <point x="553" y="370"/>
      <point x="611" y="442"/>
      <point x="611" y="528" type="curve" smooth="yes"/>
      <point x="611" y="558"/>
      <point x="604" y="586"/>
      <point x="592" y="611" type="curve"/>
      <point x="641" y="584"/>
      <point x="670" y="534"/>
      <point x="670" y="480" type="curve" smooth="yes"/>
      <point x="670" y="398"/>
      <point x="605" y="332"/>
    </contour>
  </outline>
</glyph>
<glyph name="uni058F" format="2">
  <advance width="610"/>
  <unicode hex="058F"/>
  <note>
uni058F
</note>
  <outline>
    <contour>
      <point x="507" y="0" type="line"/>
      <point x="507" y="481" type="line" smooth="yes"/>
      <point x="507" y="645"/>
      <point x="425" y="724"/>
      <point x="275" y="724" type="curve" smooth="yes"/>
      <point x="125" y="724"/>
      <point x="39" y="636"/>
      <point x="39" y="442" type="curve"/>
      <point x="176" y="442" type="line"/>
      <point x="176" y="571"/>
      <point x="209" y="604"/>
      <point x="273" y="604" type="curve" smooth="yes"/>
      <point x="337" y="604"/>
      <point x="371" y="568"/>
      <point x="371" y="474" type="curve" smooth="yes"/>
      <point x="371" y="0" type="line"/>
    </contour>
    <contour>
      <point x="276" y="423" type="line"/>
      <point x="276" y="330" type="line"/>
      <point x="603" y="330" type="line"/>
      <point x="603" y="423" type="line"/>
    </contour>
    <contour>
      <point x="276" y="274" type="line"/>
      <point x="276" y="180" type="line"/>
      <point x="603" y="180" type="line"/>
      <point x="603" y="274" type="line"/>
    </contour>
  </outline>
</glyph>
<glyph name="uniFB13" format="2">
  <advance width="981"/>
  <unicode hex="FB13"/>
  <note>
uniFB13
</note>
  <outline>
    <contour>
      <point x="438" y="412" type="line" smooth="yes"/>
      <point x="438" y="472"/>
      <point x="427" y="505"/>
      <point x="403" y="535" type="curve" smooth="yes"/>
      <point x="375" y="570"/>
      <point x="365" y="589"/>
      <point x="365" y="612" type="curve" smooth="yes"/>
      <point x="365" y="636"/>
      <point x="373" y="650"/>
      <point x="394" y="650" type="curve" smooth="yes"/>
      <point x="571" y="650" type="line"/>
      <point x="571" y="760" type="line"/>
      <point x="387" y="760" type="line" smooth="yes"/>
      <point x="307" y="760"/>
      <point x="234" y="720"/>
      <point x="234" y="609" type="curve" smooth="yes"/>
      <point x="234" y="568"/>
      <point x="246" y="539"/>
      <point x="276" y="498" type="curve" smooth="yes"/>
      <point x="298" y="467"/>
      <point x="307" y="442"/>
      <point x="307" y="404" type="curve" smooth="yes"/>
      <point x="307" y="277" type="line" smooth="yes"/>
      <point x="307" y="166"/>
      <point x="283" y="110"/>
      <point x="236" y="110" type="curve" smooth="yes"/>
      <point x="201" y="110"/>
      <point x="185" y="139"/>
      <point x="185" y="200" type="curve" smooth="yes"/>
      <point x="185" y="502" type="line"/>
      <point x="54" y="502" type="line"/>
      <point x="54" y="168" type="line" smooth="yes"/>
      <point x="54" y="47"/>
      <point x="107" y="-10"/>
      <point x="200" y="-10" type="curve" smooth="yes"/>
      <point x="255" y="-10"/>
      <point x="297" y="14"/>
      <point x="318" y="56" type="curve"/>
      <point x="321" y="56" type="line"/>
      <point x="335" y="0" type="line"/>
      <point x="438" y="0" type="line"/>
    </contour>
    <contour>
      <point x="606" y="510" type="line"/>
      <point x="554" y="403"/>
      <point x="526" y="308"/>
      <point x="526" y="209" type="curve" smooth="yes"/>
      <point x="526" y="69"/>
      <point x="581" y="-10"/>
      <point x="676" y="-10" type="curve" smooth="yes"/>
      <point x="739" y="-10"/>
      <point x="777" y="14"/>
      <point x="806" y="56" type="curve"/>
      <point x="809" y="56" type="line"/>
      <point x="823" y="0" type="line"/>
      <point x="926" y="0" type="line"/>
      <point x="926" y="502" type="line"/>
      <point x="796" y="502" type="line"/>
      <point x="796" y="277" type="line" smooth="yes"/>
      <point x="796" y="151"/>
      <point x="771" y="109"/>
      <point x="721" y="109" type="curve" smooth="yes"/>
      <point x="679" y="109"/>
      <point x="657" y="153"/>
      <point x="657" y="214" type="curve" smooth="yes"/>
      <point x="657" y="336"/>
      <point x="691" y="452"/>
      <point x="724" y="541" type="curve"/>
      <point x="724" y="555" type="line"/>
      <point x="630" y="555" type="line"/>
    </contour>
    <contour>
      <point x="725" y="555" type="line"/>
      <point x="695" y="578" type="line" smooth="yes"/>
      <point x="665" y="596"/>
      <point x="658" y="611"/>
      <point x="658" y="631" type="curve" smooth="yes"/>
      <point x="658" y="648"/>
      <point x="663" y="670"/>
      <point x="673" y="695" type="curve" smooth="yes"/>
      <point x="688" y="734" type="line"/>
      <point x="571" y="760" type="line"/>
      <point x="548" y="697" type="line" smooth="yes"/>
      <point x="540" y="674"/>
      <point x="533" y="648"/>
      <point x="533" y="621" type="curve" smooth="yes"/>
      <point x="533" y="578"/>
      <point x="547" y="558"/>
      <point x="576" y="534" type="curve" smooth="yes"/>
      <point x="606" y="510" type="line"/>
    </contour>
  </outline>
</glyph>
<glyph name="uniFB14" format="2">
  <advance width="972"/>
  <unicode hex="FB14"/>
  <note>
uniFB14
</note>
  <outline>
    <contour>
      <point x="438" y="412" type="line" smooth="yes"/>
      <point x="438" y="473"/>
      <point x="427" y="505"/>
      <point x="403" y="535" type="curve" smooth="yes"/>
      <point x="375" y="570"/>
      <point x="365" y="589"/>
      <point x="365" y="612" type="curve" smooth="yes"/>
      <point x="365" y="636"/>
      <point x="373" y="650"/>
      <point x="394" y="650" type="curve" smooth="yes"/>
      <point x="562" y="650" type="line"/>
      <point x="562" y="760" type="line"/>
      <point x="387" y="760" type="line" smooth="yes"/>
      <point x="307" y="760"/>
      <point x="234" y="720"/>
      <point x="234" y="609" type="curve" smooth="yes"/>
      <point x="234" y="568"/>
      <point x="247" y="539"/>
      <point x="276" y="498" type="curve" smooth="yes"/>
      <point x="298" y="467"/>
      <point x="307" y="442"/>
      <point x="307" y="404" type="curve" smooth="yes"/>
      <point x="307" y="277" type="line" smooth="yes"/>
      <point x="307" y="166"/>
      <point x="283" y="110"/>
      <point x="236" y="110" type="curve" smooth="yes"/>
      <point x="201" y="110"/>
      <point x="185" y="139"/>
      <point x="185" y="200" type="curve" smooth="yes"/>
      <point x="185" y="502" type="line"/>
      <point x="54" y="502" type="line"/>
      <point x="54" y="168" type="line" smooth="yes"/>
      <point x="54" y="47"/>
      <point x="107" y="-10"/>
      <point x="200" y="-10" type="curve" smooth="yes"/>
      <point x="255" y="-10"/>
      <point x="297" y="14"/>
      <point x="318" y="56" type="curve"/>
      <point x="321" y="56" type="line"/>
      <point x="335" y="0" type="line"/>
      <point x="438" y="0" type="line"/>
    </contour>
    <contour>
      <point x="916" y="302" type="line"/>
      <point x="785" y="302" type="line"/>
      <point x="785" y="277" type="line" smooth="yes"/>
      <point x="785" y="166"/>
      <point x="761" y="110"/>
      <point x="714" y="110" type="curve" smooth="yes"/>
      <point x="679" y="110"/>
      <point x="663" y="139"/>
      <point x="663" y="200" type="curve" smooth="yes"/>
      <point x="663" y="760" type="line"/>
      <point x="532" y="760" type="line"/>
      <point x="532" y="168" type="line" smooth="yes"/>
      <point x="532" y="47"/>
      <point x="585" y="-10"/>
      <point x="678" y="-10" type="curve" smooth="yes"/>
      <point x="733" y="-10"/>
      <point x="775" y="14"/>
      <point x="796" y="56" type="curve"/>
      <point x="799" y="56" type="line"/>
      <point x="813" y="0" type="line"/>
      <point x="916" y="0" type="line"/>
    </contour>
    <contour>
      <point x="612" y="502" type="line"/>
      <point x="612" y="392" type="line"/>
      <point x="920" y="392" type="line"/>
      <point x="920" y="502" type="line"/>
    </contour>
  </outline>
</glyph>
<glyph name="uniFB15" format="2">
  <advance width="970"/>
  <unicode hex="FB15"/>
  <note>
uniFB15
</note>
  <outline>
    <contour>
      <point x="438" y="412" type="line" smooth="yes"/>
      <point x="438" y="473"/>
      <point x="426" y="505"/>
      <point x="403" y="535" type="curve" smooth="yes"/>
      <point x="375" y="571"/>
      <point x="365" y="589"/>
      <point x="365" y="612" type="curve" smooth="yes"/>
      <point x="365" y="636"/>
      <point x="373" y="650"/>
      <point x="394" y="650" type="curve" smooth="yes"/>
      <point x="608" y="650" type="line"/>
      <point x="608" y="760" type="line"/>
      <point x="387" y="760" type="line" smooth="yes"/>
      <point x="307" y="760"/>
      <point x="234" y="720"/>
      <point x="234" y="609" type="curve" smooth="yes"/>
      <point x="234" y="568"/>
      <point x="246" y="539"/>
      <point x="276" y="498" type="curve" smooth="yes"/>
      <point x="298" y="468"/>
      <point x="307" y="442"/>
      <point x="307" y="404" type="curve" smooth="yes"/>
      <point x="307" y="277" type="line" smooth="yes"/>
      <point x="307" y="166"/>
      <point x="283" y="110"/>
      <point x="236" y="110" type="curve" smooth="yes"/>
      <point x="201" y="110"/>
      <point x="185" y="139"/>
      <point x="185" y="200" type="curve" smooth="yes"/>
      <point x="185" y="502" type="line"/>
      <point x="54" y="502" type="line"/>
      <point x="54" y="168" type="line" smooth="yes"/>
      <point x="54" y="47"/>
      <point x="107" y="-10"/>
      <point x="200" y="-10" type="curve" smooth="yes"/>
      <point x="255" y="-10"/>
      <point x="297" y="14"/>
      <point x="318" y="56" type="curve"/>
      <point x="321" y="56" type="line"/>
      <point x="335" y="0" type="line"/>
      <point x="438" y="0" type="line"/>
    </contour>
    <contour>
      <point x="669" y="760" type="line"/>
      <point x="532" y="760" type="line"/>
      <point x="532" y="-238" type="line"/>
      <point x="663" y="-238" type="line"/>
      <point x="663" y="225" type="line" smooth="yes"/>
      <point x="663" y="336"/>
      <point x="687" y="392"/>
      <point x="734" y="392" type="curve" smooth="yes"/>
      <point x="769" y="392"/>
      <point x="785" y="363"/>
      <point x="785" y="302" type="curve" smooth="yes"/>
      <point x="785" y="0" type="line"/>
      <point x="916" y="0" type="line"/>
      <point x="916" y="334" type="line" smooth="yes"/>
      <point x="916" y="455"/>
      <point x="863" y="512"/>
      <point x="781" y="512" type="curve" smooth="yes"/>
      <point x="722" y="512"/>
      <point x="688" y="492"/>
      <point x="668" y="453" type="curve"/>
      <point x="664" y="453" type="line"/>
      <point x="667" y="479"/>
      <point x="669" y="505"/>
      <point x="669" y="530" type="curve" smooth="yes"/>
    </contour>
  </outline>
</glyph>
<glyph name="uniFB16" format="2">
  <advance width="981"/>
  <unicode hex="FB16"/>
  <note>
uniFB16
</note>
  <outline>
    <contour>
      <point x="438" y="-129" type="line"/>
      <point x="438" y="760" type="line"/>
      <point x="307" y="760" type="line"/>
      <point x="307" y="277" type="line" smooth="yes"/>
      <point x="307" y="166"/>
      <point x="283" y="110"/>
      <point x="236" y="110" type="curve" smooth="yes"/>
      <point x="201" y="110"/>
      <point x="185" y="139"/>
      <point x="185" y="200" type="curve" smooth="yes"/>
      <point x="185" y="502" type="line"/>
      <point x="54" y="502" type="line"/>
      <point x="54" y="168" type="line" smooth="yes"/>
      <point x="54" y="47"/>
      <point x="107" y="-10"/>
      <point x="190" y="-10" type="curve" smooth="yes"/>
      <point x="251" y="-10"/>
      <point x="287" y="14"/>
      <point x="308" y="56" type="curve"/>
      <point x="311" y="56" type="line"/>
      <point x="309" y="33"/>
      <point x="307" y="8"/>
      <point x="307" y="-15" type="curve" smooth="yes"/>
      <point x="307" y="-238" type="line"/>
      <point x="536" y="-238" type="line"/>
      <point x="536" y="-129" type="line"/>
    </contour>
    <contour>
      <point x="365" y="760" type="line"/>
      <point x="365" y="650" type="line"/>
      <point x="571" y="650" type="line"/>
      <point x="571" y="760" type="line"/>
    </contour>
    <contour>
      <point x="606" y="510" type="line"/>
      <point x="555" y="408"/>
      <point x="526" y="310"/>
      <point x="526" y="209" type="curve" smooth="yes"/>
      <point x="526" y="69"/>
      <point x="581" y="-10"/>
      <point x="676" y="-10" type="curve" smooth="yes"/>
      <point x="739" y="-10"/>
      <point x="777" y="14"/>
      <point x="806" y="56" type="curve"/>
      <point x="809" y="56" type="line"/>
      <point x="823" y="0" type="line"/>
      <point x="926" y="0" type="line"/>
      <point x="926" y="502" type="line"/>
      <point x="796" y="502" type="line"/>
      <point x="796" y="277" type="line" smooth="yes"/>
      <point x="796" y="151"/>
      <point x="771" y="109"/>
      <point x="721" y="109" type="curve" smooth="yes"/>
      <point x="679" y="109"/>
      <point x="657" y="153"/>
      <point x="657" y="214" type="curve" smooth="yes"/>
      <point x="657" y="336"/>
      <point x="691" y="452"/>
      <point x="724" y="541" type="curve"/>
      <point x="724" y="555" type="line"/>
      <point x="628" y="555" type="line"/>
    </contour>
    <contour>
      <point x="724" y="555" type="line"/>
      <point x="695" y="578" type="line" smooth="yes"/>
      <point x="668" y="600"/>
      <point x="658" y="611"/>
      <point x="658" y="631" type="curve" smooth="yes"/>
      <point x="658" y="648"/>
      <point x="662" y="671"/>
      <point x="673" y="696" type="curve" smooth="yes"/>
      <point x="688" y="730" type="line"/>
      <point x="571" y="760" type="line"/>
      <point x="548" y="697" type="line" smooth="yes"/>
      <point x="540" y="674"/>
      <point x="533" y="648"/>
      <point x="533" y="621" type="curve" smooth="yes"/>
      <point x="533" y="578"/>
      <point x="547" y="558"/>
      <point x="576" y="534" type="curve" smooth="yes"/>
      <point x="606" y="510" type="line"/>
    </contour>
  </outline>
</glyph>
